<?xml version="1.0" encoding="UTF-8"?>
<svg version="1.1" xmlns="http://www.w3.org/2000/svg" width="618" height="208">
<path d="M0 0 C203.94 0 407.88 0 618 0 C618 68.64 618 137.28 618 208 C414.06 208 210.12 208 0 208 C0 139.36 0 70.72 0 0 Z " fill="#FDFDFE" transform="translate(0,0)"/>
<path d="M0 0 C1.18128983 -0.0065712 2.36257965 -0.0131424 3.57966614 -0.01991272 C7.48262902 -0.03959612 11.38557837 -0.0513065 15.28857422 -0.0612793 C16.63859959 -0.06533111 17.98862477 -0.06944815 19.33864975 -0.07362938 C25.68501314 -0.09265931 32.03136507 -0.10689379 38.37775147 -0.11524135 C45.67383386 -0.12499972 52.96961175 -0.15129154 60.26558697 -0.19174224 C65.92444985 -0.22202649 71.58322605 -0.23672188 77.24216831 -0.24002236 C80.61284821 -0.2423592 83.98320203 -0.25113885 87.3537941 -0.27648354 C91.12282502 -0.3009482 94.89106949 -0.2998959 98.66015625 -0.29296875 C99.75772751 -0.30577881 100.85529877 -0.31858887 101.98612976 -0.33178711 C112.85071604 -0.25943943 122.42898477 2.76320526 131.21826172 9.17700195 C132.24951172 9.89887695 133.28076172 10.62075195 134.34326172 11.36450195 C142.21623045 18.27474353 146.57185537 29.6188878 147.44772339 39.85998535 C147.8380698 47.83596196 147.77881983 55.81876854 147.74951172 63.80200195 C147.75221074 66.39786931 147.75609657 68.99373568 147.7611084 71.58959961 C147.76698404 77.01272214 147.7588917 82.43555747 147.73974609 87.85864258 C147.71798396 94.09417858 147.72503789 100.32919109 147.74705172 106.56471443 C147.76751606 112.60732253 147.76519129 118.64967828 147.75352478 124.69232178 C147.75087191 127.24379552 147.75407606 129.79528279 147.76344299 132.34674072 C147.85436614 164.06858271 147.85436614 164.06858271 137.21826172 177.17700195 C136.71681641 177.80219727 136.21537109 178.42739258 135.69873047 179.0715332 C128.71213734 186.87407881 117.95764328 191.62059116 107.56189728 192.36797714 C104.44295983 192.45035603 101.32950572 192.47009423 98.20947266 192.4675293 C97.02789078 192.47424652 95.8463089 192.48096375 94.62892151 192.48788452 C91.40757729 192.50356137 88.18638835 192.51023571 84.96501064 192.51151609 C82.94603578 192.51294412 80.92708744 192.51722601 78.9081192 192.52251053 C71.84628094 192.54097923 64.78451786 192.54918528 57.72265625 192.54760742 C51.16971273 192.54640746 44.61709933 192.56748902 38.06423926 192.59909475 C32.41381546 192.62536367 26.76349876 192.63597027 21.11301446 192.6346966 C17.74902712 192.63418998 14.38556583 192.6415832 11.02159882 192.6610527 C7.26233473 192.68077243 3.50390811 192.67484998 -0.25537109 192.6628418 C-1.34980026 192.67408081 -2.44422943 192.68531982 -3.57182312 192.69689941 C-16.20405971 192.59499151 -26.33376742 188.52066453 -35.78173828 180.17700195 C-43.47306787 172.35531085 -47.87555485 160.96052356 -47.9289093 150.05612183 C-47.93606461 149.04703262 -47.94321991 148.03794342 -47.95059204 146.99827576 C-47.95328094 145.90209427 -47.95596985 144.80591278 -47.95874023 143.67651367 C-47.96531143 142.51327072 -47.97188263 141.35002777 -47.97865295 140.15153503 C-47.99835711 136.30325249 -48.0100427 132.45500893 -48.02001953 128.60668945 C-48.02409506 127.29006443 -48.02817059 125.97343941 -48.03236961 124.61691666 C-48.05140612 118.36505863 -48.06563876 112.11321227 -48.07398158 105.86133087 C-48.08373994 98.66936737 -48.1100289 91.47771279 -48.15048248 84.28585804 C-48.18075249 78.71110663 -48.19546082 73.13644322 -48.1987626 67.56161129 C-48.20110125 64.23955346 -48.21191408 60.91789945 -48.23522377 57.59591293 C-48.2596645 53.88164688 -48.25864044 50.16817988 -48.25170898 46.45385742 C-48.26451904 45.36982132 -48.2773291 44.28578522 -48.29052734 43.16889954 C-48.2074386 30.89182933 -43.83056052 21.35323015 -35.78173828 12.17700195 C-25.10300895 1.97162056 -14.29846453 0.03464596 0 0 Z " fill="#3E6BB1" transform="translate(86.78173828125,2.822998046875)"/>
<path d="M0 0 C7.280625 -0.0825 14.56125 -0.165 22.0625 -0.25 C25.45994507 -0.30462402 25.45994507 -0.30462402 28.92602539 -0.36035156 C46.59033068 -0.52517037 62.60629709 1.4666021 76.1484375 13.9296875 C84.26073699 23.00040212 87.63009543 35.04846949 87.2890625 47.015625 C86.08902375 59.40521429 81.04512246 69.52118086 72 78 C57.63793738 89.42379232 39.88582756 88.52224867 22.5625 88.25 C15.116875 88.1675 7.67125 88.085 0 88 C0 58.96 0 29.92 0 0 Z " fill="#1E326A" transform="translate(271,56)"/>
<path d="M0 0 C7.90768747 4.75470204 13.07150077 11.21450231 16 20 C17.0032044 30.49554984 17.55008002 41.23752594 11 50 C10.5771875 50.63808594 10.154375 51.27617187 9.71875 51.93359375 C5.11016201 58.16322577 -2.45475904 62.42375921 -10 64 C-13.22580907 64.26591377 -16.45185229 64.27694343 -19.6875 64.3125 C-20.54794922 64.34150391 -21.40839844 64.37050781 -22.29492188 64.40039062 C-30.95932172 64.48527171 -38.24806404 61.43090501 -45 56 C-53.31043781 47.29638019 -55.51876957 38.67291698 -55.41992188 26.83178711 C-55.00797219 15.7210287 -49.41896779 9.13375896 -41.625 1.75 C-40.75875 1.1725 -39.8925 0.595 -39 0 C-38.45859375 -0.37125 -37.9171875 -0.7425 -37.359375 -1.125 C-26.90776909 -7.05031989 -10.22111605 -5.71229869 0 0 Z " fill="#1C3069" transform="translate(422,80)"/>
<path d="M0 0 C5.81715483 -0.4615099 11.616994 -0.72534897 17.453125 -0.60546875 C18.4112207 -0.58895264 19.36931641 -0.57243652 20.35644531 -0.55541992 C23.73494952 0.15441542 25.06671366 1.49049708 27.3125 4.0625 C28.23290506 6.0303599 29.1253061 8.01140033 30 10 C31.72663825 12.72630753 33.58843899 15.35571234 35.4375 18 C40 24.66563561 40 24.66563561 40 27 C45.09816227 22.4466795 48.54120983 16.9516878 52.25 11.25 C53.50436223 9.33798632 54.75952639 7.42649841 56.015625 5.515625 C56.83981934 4.25153809 56.83981934 4.25153809 57.68066406 2.96191406 C59 1 59 1 60 0 C61.63472882 -0.08700342 63.27314055 -0.10701063 64.91015625 -0.09765625 C65.89951172 -0.09443359 66.88886719 -0.09121094 67.90820312 -0.08789062 C68.94912109 -0.07951172 69.99003906 -0.07113281 71.0625 -0.0625 C72.62967773 -0.05573242 72.62967773 -0.05573242 74.22851562 -0.04882812 C76.8190666 -0.03699913 79.40950559 -0.02051689 82 0 C80.82736631 3.13530876 79.60063787 5.82906275 77.63671875 8.5390625 C77.1677417 9.19302002 76.69876465 9.84697754 76.21557617 10.52075195 C75.71131104 11.21515381 75.2070459 11.90955566 74.6875 12.625 C73.61377825 14.13093672 72.54089428 15.63747105 71.46875 17.14453125 C69.69723185 19.62557086 67.92432889 22.10558435 66.1484375 24.58349609 C64.31554036 27.15118176 62.50017694 29.73051389 60.6875 32.3125 C60.10637451 33.1183252 59.52524902 33.92415039 58.92651367 34.75439453 C58.39775635 35.51220215 57.86899902 36.27000977 57.32421875 37.05078125 C56.6139856 38.05105347 56.6139856 38.05105347 55.8894043 39.0715332 C54.82372611 40.95337388 54.82372611 40.95337388 55.20166016 43.00878906 C56.07159162 45.17856307 57.10576197 46.89496708 58.44921875 48.80859375 C58.96137939 49.54601807 59.47354004 50.28344238 60.0012207 51.04321289 C60.83592896 52.22838501 60.83592896 52.22838501 61.6875 53.4375 C62.86302679 55.13208625 64.03746446 56.82742842 65.2109375 58.5234375 C65.82678711 59.4112793 66.44263672 60.29912109 67.07714844 61.21386719 C70.36042032 65.97119307 73.59212129 70.7624539 76.8125 75.5625 C77.42891357 76.47249756 78.04532715 77.38249512 78.68041992 78.32006836 C79.24607666 79.16448486 79.8117334 80.00890137 80.39453125 80.87890625 C81.15020386 82.00147827 81.15020386 82.00147827 81.92114258 83.14672852 C83 85 83 85 83 87 C75.38104148 88.78808133 67.40890657 90.04662055 60 87 C52.07716422 79.64878958 46.9331487 69.49769119 42 60 C37.94609723 61.35130092 37.72359624 63.01407802 35.83203125 66.78515625 C25.82793178 85.50766482 25.82793178 85.50766482 18.85253906 88.22705078 C11.8213667 89.27872186 4.92001391 88.47680559 -2 87 C2.296303 80.09213465 6.77888047 73.33621276 11.375 66.625 C11.9328418 65.80652588 12.49068359 64.98805176 13.06542969 64.14477539 C15.62311352 60.40522168 18.20186201 56.69482258 20.91015625 53.0625 C21.34086426 52.4751709 21.77157227 51.8878418 22.21533203 51.28271484 C23.35783452 49.73305605 24.52001679 48.19796047 25.68359375 46.6640625 C27.27990431 44.11795645 27.27990431 44.11795645 26.51171875 41.58984375 C24.58385183 38.28706398 22.533962 35.09181443 20.375 31.9375 C19.47003842 30.59766548 18.56509067 29.25782161 17.66015625 27.91796875 C16.98557373 26.92482666 16.98557373 26.92482666 16.29736328 25.91162109 C0 1.89800527 0 1.89800527 0 0 Z " fill="#1D3069" transform="translate(518,56)"/>
<path d="M0 0 C2.5175092 3.7762638 2.73941121 6.56353277 2 11 C0.375 13 0.375 13 -2 14 C-6.10281481 14.41865457 -7.51131349 14.32579101 -11 12 C-14.70544587 11.80149397 -17.47005387 11.82335129 -21 13 C-27.04166371 24.17099565 -22.0868998 41.49951425 -19 53 C-15.25982608 65.36429783 -10.25782551 79.46663303 0.9375 86.875 C7.05805796 90.00668549 13.30337184 90.05656222 20 89 C31.13115445 84.8911846 36.49917994 75.33261876 41.32421875 65.06640625 C46.78398816 52.54362662 49.19696929 38.77770073 49.125 25.1875 C49.12886719 24.43791016 49.13273437 23.68832031 49.13671875 22.91601562 C49.13094162 19.68371214 49.02914145 17.08742435 48 14 C44.30109689 11.99202402 41.16541782 11.64549636 37 12 C36.34 12.33 35.68 12.66 35 13 C32.1940083 14.40299585 30.09165679 14.32889966 27 14 C24.84035665 12.39294145 24.08805801 11.52266691 23.63671875 8.84375 C23.65347656 8.0703125 23.67023438 7.296875 23.6875 6.5 C23.69136719 5.7265625 23.69523437 4.953125 23.69921875 4.15625 C24 2 24 2 26 -1 C29.74868276 -1.41652031 32.11733001 -1.4979164 35.4375 0.375 C37 2 37 2 37 4 C37.58007812 4.02578125 38.16015625 4.0515625 38.7578125 4.078125 C45.07780369 4.53700225 48.97497762 5.82292623 53.4765625 10.55078125 C58.26473792 16.79680896 57.56959111 23.47497943 57 31 C56.93941406 32.02351563 56.87882812 33.04703125 56.81640625 34.1015625 C54.93685284 52.80427917 48.48272362 77.24494045 34.24609375 90.34375 C28.64676368 94.4726473 22.98129781 97.15171977 16 97 C16.08160659 100.83415713 16.19438419 104.66680759 16.3125 108.5 C16.34633789 110.11648437 16.34633789 110.11648437 16.38085938 111.765625 C16.62593844 119.0734372 17.00853998 125.48382824 21.9375 131.27734375 C22.9584375 132.09912109 22.9584375 132.09912109 24 132.9375 C24.680625 133.50339844 25.36125 134.06929687 26.0625 134.65234375 C31.27162989 138.27562966 37.9439904 137.49510031 44 137 C49.81319795 135.52794826 53.50351418 132.09555277 56.87890625 127.23828125 C58.69801595 123.60640021 58.98139816 120.01799809 59 116 C58.21625 115.71125 57.4325 115.4225 56.625 115.125 C54 114 54 114 52 112 C50.70293009 108.10879026 50 105.12193682 50 101 C50.66 101 51.32 101 52 101 C52.33 100.34 52.66 99.68 53 99 C55.0625 97.875 55.0625 97.875 57 97 C56.97679687 97.69867188 56.95359375 98.39734375 56.9296875 99.1171875 C56.91164063 100.02726562 56.89359375 100.93734375 56.875 101.875 C56.85179687 102.77992188 56.82859375 103.68484375 56.8046875 104.6171875 C56.75675164 107.18806994 56.75675164 107.18806994 59 109 C63.63823162 109.47827951 63.63823162 109.47827951 67.875 107.875 C69.40430823 105.32615294 69.67470941 102.92761527 70 100 C71.98 100.33 73.96 100.66 76 101 C76.3293031 105.11628873 76.2114158 107.56903702 74.375 111.3125 C71.70412463 114.33480634 69.8842416 115.11721782 66 116 C66.0825 116.94875 66.165 117.8975 66.25 118.875 C66.23687465 125.34579621 63.30864013 131.01834494 59.8125 136.3125 C52.19933564 143.5873015 44.59273086 145.38083379 34.32421875 145.27734375 C26.64907316 144.6369967 20.06726574 140.75167565 15 135 C11.07893963 128.93367863 9.86546076 123.23515237 9.90234375 116.04296875 C9.90556641 114.93115234 9.90878906 113.81933594 9.91210938 112.67382812 C9.92467773 110.9480957 9.92467773 110.9480957 9.9375 109.1875 C9.94201172 108.01767578 9.94652344 106.84785156 9.95117188 105.64257812 C9.9629307 102.76166642 9.97936574 99.88085956 10 97 C8.58424683 97.02513672 8.58424683 97.02513672 7.13989258 97.05078125 C-0.27320974 96.9308897 -6.70236042 91.14171473 -11.9296875 86.296875 C-20.84913209 76.40134024 -24.40277063 62.4223269 -27.1875 49.75 C-27.44724609 48.6053125 -27.70699219 47.460625 -27.97460938 46.28125 C-33.70545347 20.8108318 -33.70545347 20.8108318 -28.20703125 11.58203125 C-24.79777337 7.11358645 -20.45609937 4.35087134 -14.9375 3.5625 C-11.78031429 2.95793252 -10.99416399 2.39299678 -9 0 C-5.85135005 -1.57432497 -3.35512575 -0.71895552 0 0 Z " fill="#F2F6FB" transform="translate(116,27)"/>
<path d="M0 0 C0.83337891 0.41958984 0.83337891 0.41958984 1.68359375 0.84765625 C3.04484375 1.52828125 3.04484375 1.52828125 4.43359375 2.22265625 C8.4529312 5.12551107 12.02317362 8.64699289 14.68359375 12.84765625 C14.68359375 13.83765625 14.68359375 14.82765625 14.68359375 15.84765625 C12.41752323 16.88040966 10.14677436 17.89899176 7.87109375 18.91015625 C7.22849609 19.20470703 6.58589844 19.49925781 5.92382812 19.80273438 C1.0234375 21.9609375 1.0234375 21.9609375 -2.31640625 20.84765625 C-3.64973958 19.51432292 -4.98307292 18.18098958 -6.31640625 16.84765625 C-11.00805223 13.95498564 -15.97815932 14.22099248 -21.31640625 14.84765625 C-25.82551792 17.02169223 -28.17459808 19.33858641 -30.31640625 23.84765625 C-31.89051972 29.1616847 -32.48893578 34.95282194 -30.375 40.171875 C-28.0331756 44.143433 -25.77739771 47.29600705 -21.31640625 48.84765625 C-15.0737933 49.51684906 -9.62522841 49.56383176 -4.31640625 45.84765625 C-2.46325368 43.79819226 -2.46325368 43.79819226 -1.31640625 41.84765625 C4.3686191 43.49332148 9.45041011 46.13798409 14.68359375 48.84765625 C10.73089021 56.75306332 5.37576286 62.06979279 -3.04296875 65.15234375 C-7.5013263 66.09934571 -11.82985396 66.28504887 -16.37890625 66.34765625 C-17.21768311 66.36618652 -18.05645996 66.3847168 -18.9206543 66.40380859 C-27.63516853 66.31677438 -35.94153976 62.8709114 -42.31640625 56.84765625 C-44.63185002 54.0037465 -46.52309991 51.0430021 -48.31640625 47.84765625 C-48.65929687 47.2546875 -49.0021875 46.66171875 -49.35546875 46.05078125 C-53.06707681 38.21131002 -52.6589072 26.53210855 -49.87890625 18.47265625 C-45.31159296 8.96943947 -38.04481416 2.62312141 -28.31640625 -1.15234375 C-20.17168149 -3.867252 -7.93529377 -3.32570792 0 0 Z " fill="#1C3069" transform="translate(498.31640625,78.15234375)"/>
<path d="M0 0 C29.1025641 0 29.1025641 0 37.875 7.4375 C45.19793561 16.26809882 45.99220755 23.78919518 45 35 C42.92731329 42.12892694 39.09773509 46.90152232 33 51 C23 54 23 54 0 54 C0 36.18 0 18.36 0 0 Z " fill="#FAFCFC" transform="translate(292,73)"/>
<path d="M0 0 C4.45146251 2.18526342 7.18885145 4.9394521 10 9 C11.99374888 14.98124663 11.99908576 21.67434022 9.3125 27.4375 C7.02347568 31.41274509 4.10501204 33.94749398 0 36 C-4.82644951 36.57858803 -9.80270371 37.10630423 -14.2421875 34.87109375 C-18.78371129 31.13846797 -21.60129275 27.17173855 -22.34765625 21.234375 C-22.69410629 14.1632408 -21.80196829 9.31281598 -17 4 C-11.97181489 -0.78874772 -6.6181406 -0.97644697 0 0 Z " fill="#F8FAFB" transform="translate(408,92)"/>
<path d="M0 0 C0.33 0 0.66 0 1 0 C1.12473576 5.76164081 1.21486943 11.5224748 1.2746582 17.28515625 C1.29961363 19.24037387 1.3335907 21.19550004 1.37719727 23.15039062 C1.67118186 36.68059925 1.66540234 48.90874198 -8.25 59.375 C-17.3603839 68.72513084 -27.9915307 73.92548856 -41.212677 74.50120544 C-43.38143537 74.52154722 -45.55046848 74.52079318 -47.71923828 74.50170898 C-48.91600693 74.50711197 -50.11277557 74.51251495 -51.34580994 74.51808167 C-54.58298421 74.52834155 -57.81947607 74.52099752 -61.05660486 74.50437045 C-64.45976703 74.49038284 -67.86290212 74.49699425 -71.26608276 74.50050354 C-76.96653864 74.50319128 -82.66678215 74.4898422 -88.3671875 74.46655273 C-94.95503217 74.43982382 -101.54252506 74.4382415 -108.13040555 74.4499411 C-114.48804351 74.46071132 -120.84555438 74.45454607 -127.20318222 74.44038582 C-129.90250534 74.43463222 -132.60173526 74.43470338 -135.30105972 74.43945122 C-139.05916115 74.44234993 -142.81667921 74.42592459 -146.57470703 74.40405273 C-147.69363846 74.40855438 -148.81256989 74.41305603 -149.96540833 74.41769409 C-150.98568619 74.40778946 -152.00596405 74.39788483 -153.05715942 74.38768005 C-153.9445537 74.38525016 -154.83194798 74.38282026 -155.74623299 74.38031673 C-158.43238398 73.92703644 -159.31599166 73.08653046 -161 71 C-160.34162108 71.00184359 -159.68324217 71.00368717 -159.00491238 71.00558662 C-142.97133344 71.04979113 -126.93777576 71.08286895 -110.90415096 71.10362434 C-103.15035244 71.11392875 -95.39659465 71.1279731 -87.64282227 71.15087891 C-80.88317145 71.17083838 -74.12355014 71.18372251 -67.36387068 71.18817699 C-63.78600478 71.19078004 -60.20822326 71.1968809 -56.63038445 71.21146011 C-52.63237672 71.22761872 -48.6345149 71.22797804 -44.63647461 71.22705078 C-42.8648571 71.23783661 -42.8648571 71.23783661 -41.05744934 71.24884033 C-35.30958601 71.23440922 -30.41955049 70.97129486 -25 69 C-25 68.34 -25 67.68 -25 67 C-24.34 67 -23.68 67 -23 67 C-23.33 65.68 -23.66 64.36 -24 63 C-23.01 63.33 -22.02 63.66 -21 64 C-20.01 63.67 -19.02 63.34 -18 63 C-17.01 63.33 -16.02 63.66 -15 64 C-15.165 62.88625 -15.33 61.7725 -15.5 60.625 C-16 57 -16 57 -16 55 C-13.36 54.67 -10.72 54.34 -8 54 C-7.85304687 53.07767578 -7.85304687 53.07767578 -7.703125 52.13671875 C-6.46017082 45.41833711 -6.46017082 45.41833711 -3.9375 43.125 C-3.298125 42.75375 -2.65875 42.3825 -2 42 C-0.69079497 38.0723849 -0.76537132 34.27429369 -0.68359375 30.17578125 C-0.6524221 28.88367989 -0.6524221 28.88367989 -0.62062073 27.56547546 C-0.55525091 24.81456456 -0.49629868 22.06355844 -0.4375 19.3125 C-0.39430283 17.44725579 -0.35068815 15.5820212 -0.30664062 13.71679688 C-0.19958237 9.14462876 -0.09827946 4.5723649 0 0 Z " fill="#65498B" transform="translate(232,121)"/>
<path d="M0 0 C-0.33333333 2.33333333 -0.66666667 4.66666667 -1 7 C-1.103125 8.19625 -1.20625 9.3925 -1.3125 10.625 C-2.10113235 14.4964679 -3.18170432 16.26222706 -6 19 C-8.0625 20 -8.0625 20 -10 20 C-11.5625 18.5625 -11.5625 18.5625 -13 17 C-13.99 17 -14.98 17 -16 17 C-16.66 17 -17.32 17 -18 17 C-18.33 16.67 -18.66 16.34 -19 16 C-21.4164124 16.48328248 -23.65832183 17.21944061 -26 18 C-25.67 18.99 -25.34 19.98 -25 21 C-25.73476562 21.87205078 -25.73476562 21.87205078 -26.484375 22.76171875 C-28.67770094 26.00083154 -27.92233678 28.02855581 -27.25 31.8125 C-27.04890625 32.99457031 -26.8478125 34.17664062 -26.640625 35.39453125 C-26.32351562 37.17923828 -26.32351562 37.17923828 -26 39 C-25.85046875 40.26199219 -25.7009375 41.52398437 -25.546875 42.82421875 C-25.29977885 46.08478878 -25.29977885 46.08478878 -23 48 C-23.375 50.125 -23.375 50.125 -24 52 C-23.34 52.33 -22.68 52.66 -22 53 C-21.11328125 55.6171875 -21.11328125 55.6171875 -20.3125 58.875 C-20.04050781 59.94492188 -19.76851562 61.01484375 -19.48828125 62.1171875 C-19 65 -19 65 -20 68 C-22.16272596 65.83727404 -22.56603668 64.72012925 -23.4375 61.8515625 C-23.69192871 61.01713623 -23.94635742 60.18270996 -24.20849609 59.32299805 C-24.46969238 58.43265869 -24.73088867 57.54231934 -25 56.625 C-25.2676416 55.71468018 -25.5352832 54.80436035 -25.81103516 53.86645508 C-33.63669656 26.68932029 -33.63669656 26.68932029 -28.66796875 16.18359375 C-27 14 -27 14 -24 12 C-17.67741935 11.5483871 -17.67741935 11.5483871 -14 14 C-9.92509248 14.33957563 -8.46998729 14.31332486 -5 12 C-4.31506319 6.80982792 -4.31506319 6.80982792 -6.23046875 2.2265625 C-8.61002303 0.57715843 -9.86764896 0.86295853 -12.6875 1.3125 C-13.49574219 1.43238281 -14.30398437 1.55226563 -15.13671875 1.67578125 C-15.75160156 1.78277344 -16.36648437 1.88976562 -17 2 C-17.33 2.99 -17.66 3.98 -18 5 C-19.95182067 5.49622559 -21.90571919 5.98629678 -23.87109375 6.42578125 C-28.65579521 7.71633375 -31.85278947 10.24851398 -34.375 14.4375 C-38.10510326 22.7489749 -36.10966483 33.22175855 -35 42 C-35.99 42.495 -35.99 42.495 -37 43 C-37.13277344 42.31292969 -37.26554687 41.62585938 -37.40234375 40.91796875 C-37.57894531 40.01691406 -37.75554687 39.11585937 -37.9375 38.1875 C-38.11152344 37.29417969 -38.28554687 36.40085938 -38.46484375 35.48046875 C-38.97741153 32.88602829 -38.97741153 32.88602829 -40 30 C-39.83988879 27.29876894 -39.39559392 24.68124769 -39 22 C-39.66 21.67 -40.32 21.34 -41 21 C-40.34 21 -39.68 21 -39 21 C-39.33 20.01 -39.66 19.02 -40 18 C-40.03954234 15.66700175 -40.04401732 13.33291811 -40 11 C-39.21625 10.9175 -38.4325 10.835 -37.625 10.75 C-34.85250896 10.27193661 -34.85250896 10.27193661 -33.6875 7.9375 C-33.460625 7.298125 -33.23375 6.65875 -33 6 C-32.01 6.33 -31.02 6.66 -30 7 C-30 6.34 -30 5.68 -30 5 C-29.01 5 -28.02 5 -27 5 C-26.62875 4.0409375 -26.62875 4.0409375 -26.25 3.0625 C-25 1 -25 1 -22.875 0.25 C-22.25625 0.1675 -21.6375 0.085 -21 0 C-20.67 0.66 -20.34 1.32 -20 2 C-19.4225 1.525625 -18.845 1.05125 -18.25 0.5625 C-13.15201487 -2.97776745 -5.2782788 -3.51885253 0 0 Z " fill="#2F98C5" transform="translate(122,26)"/>
<path d="M0 0 C1.14182487 -0.00021904 1.14182487 -0.00021904 2.30671692 -0.0004425 C4.82275238 0.00025415 7.3387138 0.00803501 9.85473633 0.01586914 C11.59922749 0.0177342 13.34371918 0.01915769 15.08821106 0.02015686 C19.6798548 0.02397513 24.2714669 0.03379955 28.86309814 0.04486084 C33.54845756 0.05508978 38.23382209 0.05965766 42.91918945 0.06469727 C52.11256272 0.07542242 61.30591252 0.09249058 70.49926758 0.11352539 C70.49926758 0.44352539 70.49926758 0.77352539 70.49926758 1.11352539 C69.36080383 1.12898659 69.36080383 1.12898659 68.19934082 1.14476013 C61.02028324 1.24304501 53.841305 1.34560117 46.6623764 1.45286465 C42.97229284 1.50785154 39.2822011 1.56123045 35.59204102 1.61083984 C32.02581979 1.65884379 28.45968568 1.7111953 24.89356995 1.76646614 C22.88192904 1.79653747 20.87022368 1.82219383 18.85852051 1.84776306 C8.62870984 1.2087436 8.62870984 1.2087436 -0.50073242 4.11352539 C-2.1667907 4.15855399 -3.83451627 4.1522746 -5.50073242 4.11352539 C-8.61330811 4.11352539 -10.60838927 4.28714163 -13.50073242 5.11352539 C-13.17073242 6.76352539 -12.84073242 8.41352539 -12.50073242 10.11352539 C-13.26385742 10.05165039 -14.02698242 9.98977539 -14.81323242 9.92602539 C-17.47283853 9.87195094 -17.47283853 9.87195094 -19.12573242 11.30102539 C-20.772924 13.47232337 -22.1170218 15.76723346 -23.50073242 18.11352539 C-24.16073242 18.77352539 -24.82073242 19.43352539 -25.50073242 20.11352539 C-26.82073242 20.11352539 -28.14073242 20.11352539 -29.50073242 20.11352539 C-29.44272461 20.71680664 -29.3847168 21.32008789 -29.32495117 21.94165039 C-29.25727539 23.14047852 -29.25727539 23.14047852 -29.18823242 24.36352539 C-29.13022461 25.15243164 -29.0722168 25.94133789 -29.01245117 26.75415039 C-29.25415039 27.92204102 -29.25415039 27.92204102 -29.50073242 29.11352539 C-30.32645752 29.59619873 -31.15218262 30.07887207 -32.00292969 30.57617188 C-35.37911634 34.00581784 -35.05898529 36.23484708 -35.04156494 40.90498352 C-35.01262146 41.94962265 -34.98367798 42.99426178 -34.95385742 44.07055664 C-34.94441101 45.16454269 -34.9349646 46.25852875 -34.92523193 47.38566589 C-34.89063425 50.89987064 -34.8221095 54.41239233 -34.75073242 57.92602539 C-34.6835853 62.49493479 -34.6300758 67.06394399 -34.57885742 71.63305664 C-34.56399292 72.75293976 -34.54912842 73.87282288 -34.53381348 75.02664185 C-34.41922275 86.07676089 -34.8719403 97.08331333 -35.50073242 108.11352539 C-35.83073242 108.11352539 -36.16073242 108.11352539 -36.50073242 108.11352539 C-36.64036326 98.02063289 -36.74667127 87.9279739 -36.81160545 77.83430862 C-36.8427866 73.14626964 -36.88501412 68.45889626 -36.95336914 63.77124023 C-37.01903821 59.23890486 -37.0545376 54.70720562 -37.06999588 50.17443085 C-37.08099769 48.45377349 -37.10248005 46.73314704 -37.13511276 45.01276398 C-37.39026789 30.99074537 -34.80749019 20.72372368 -24.85620117 10.15649414 C-17.39727461 3.68714325 -9.81774709 -0.04912176 0 0 Z " fill="#2CA9D1" transform="translate(76.500732421875,3.886474609375)"/>
<path d="M0 0 C3.87738192 2.04443774 6.6212123 3.72575814 8 8 C8 8.99 8 9.98 8 11 C6.35 11 4.7 11 3 11 C2.731875 12.11375 2.46375 13.2275 2.1875 14.375 C1 18 1 18 -2 20 C-8.22631393 20.55592089 -8.22631393 20.55592089 -10.70703125 18.7734375 C-12.38129452 16.47701597 -12.30969123 15.12289819 -12.1875 12.3125 C-12.14689453 11.10013672 -12.14689453 11.10013672 -12.10546875 9.86328125 C-12.05326172 8.94095703 -12.05326172 8.94095703 -12 8 C-12.61875 8.495 -13.2375 8.99 -13.875 9.5 C-16 11 -16 11 -18 11 C-17.34 14.3 -16.68 17.6 -16 21 C-18.68230184 18.31769816 -18.9592464 16.43198814 -19.3125 12.6875 C-18.83314321 7.0310899 -16.42996606 4.29694596 -12.3125 0.5625 C-7.86278476 -1.53642228 -4.68315082 -1.31530354 0 0 Z " fill="#EFEEF7" transform="translate(184,117)"/>
<path d="M0 0 C0.99 3.96 0.99 3.96 2 8 C0.98679688 7.69255859 0.98679688 7.69255859 -0.046875 7.37890625 C-0.93890625 7.10949219 -1.8309375 6.84007812 -2.75 6.5625 C-3.63171875 6.29566406 -4.5134375 6.02882813 -5.421875 5.75390625 C-6.27265625 5.50511719 -7.1234375 5.25632812 -8 5 C-8.90336782 4.7328964 -8.90336782 4.7328964 -9.8249855 4.46039677 C-12.39422363 3.91655261 -14.75120464 3.87718989 -17.37835693 3.87974548 C-18.46928146 3.87837082 -19.56020599 3.87699615 -20.68418884 3.87557983 C-22.47198509 3.88097275 -22.47198509 3.88097275 -24.29589844 3.88647461 C-25.55469315 3.88632858 -26.81348785 3.88618256 -28.11042786 3.8860321 C-31.55844243 3.88574527 -35.00642219 3.89162366 -38.45442867 3.89860606 C-42.05923727 3.90485849 -45.66404668 3.9054449 -49.26885986 3.90663147 C-56.09339124 3.90973921 -62.9179066 3.91794509 -69.74243093 3.92798096 C-77.51262756 3.93915939 -85.28282496 3.94465691 -93.05302763 3.94967639 C-109.03536103 3.96012816 -125.01767845 3.97771683 -141 4 C-141 3.67 -141 3.34 -141 3 C-134.76880508 0.7998601 -128.98195989 0.69435569 -122.41186523 0.68115234 C-121.26290268 0.67110672 -120.11394012 0.6610611 -118.93016052 0.65071106 C-115.13964311 0.61987984 -111.3491968 0.60283102 -107.55859375 0.5859375 C-104.91169749 0.56720904 -102.26481741 0.54772479 -99.61793518 0.5272522 C-93.35917131 0.48052183 -87.10039004 0.44377249 -80.84154135 0.41057932 C-73.77096467 0.37256713 -66.70048419 0.32298133 -59.62998664 0.27259517 C-15.68422332 -0.03897098 -15.68422332 -0.03897098 0 0 Z " fill="#DEFBFD" transform="translate(210,0)"/>
<path d="M0 0 C15.89901792 -0.07017458 31.79799382 -0.12302947 47.6971283 -0.15543652 C55.07987657 -0.17088564 62.46252845 -0.19193759 69.84521484 -0.22631836 C76.28222343 -0.25628079 82.71916217 -0.27558921 89.15623856 -0.28226548 C92.5626007 -0.28616621 95.9687631 -0.2952922 99.37506104 -0.31719017 C103.18375451 -0.33899319 106.99203532 -0.34196562 110.80078125 -0.34057617 C112.4828492 -0.35675491 112.4828492 -0.35675491 114.19889832 -0.3732605 C120.5214316 -0.34833161 125.23281901 0.36590499 131 3 C130.01 3.66 129.02 4.32 128 5 C127.4225 4.835 126.845 4.67 126.25 4.5 C122.86304345 3.74734299 120.23488785 4.94244051 117 6 C117 4.68 117 3.36 117 2 C116.14583496 2.16677246 115.29166992 2.33354492 114.41162109 2.50537109 C110.97689173 3.00335032 107.87974038 3.03754039 104.4140625 2.9140625 C103.02807927 2.87026332 101.64209272 2.82656877 100.25610352 2.78295898 C99.50740997 2.75724823 98.75871643 2.73153748 97.98733521 2.70504761 C76.51841913 1.97757449 55.04067081 1.72139881 33.5625 1.4375 C31.89227272 1.41523965 30.22204566 1.39296187 28.55181885 1.3706665 C19.03458639 1.24388605 9.51731667 1.12030572 0 1 C0 0.67 0 0.34 0 0 Z " fill="#499CB9" transform="translate(75,3)"/>
<path d="M0 0 C0.33 0 0.66 0 1 0 C1.12473576 5.76164081 1.21486943 11.5224748 1.2746582 17.28515625 C1.29961363 19.24037387 1.3335907 21.19550004 1.37719727 23.15039062 C1.67118186 36.68059925 1.66540234 48.90874198 -8.25 59.375 C-15.290527 66.62499722 -22.1746347 70.66160408 -32 73 C-31.67 72.01 -31.34 71.02 -31 70 C-28.03 69.505 -28.03 69.505 -25 69 C-25 68.34 -25 67.68 -25 67 C-24.34 67 -23.68 67 -23 67 C-23.33 65.68 -23.66 64.36 -24 63 C-23.01 63.33 -22.02 63.66 -21 64 C-19.515 63.505 -19.515 63.505 -18 63 C-17.01 63.33 -16.02 63.66 -15 64 C-15.2475 62.329375 -15.2475 62.329375 -15.5 60.625 C-16 57 -16 57 -16 55 C-13.36 54.67 -10.72 54.34 -8 54 C-7.90203125 53.38511719 -7.8040625 52.77023438 -7.703125 52.13671875 C-6.46017082 45.41833711 -6.46017082 45.41833711 -3.9375 43.125 C-3.298125 42.75375 -2.65875 42.3825 -2 42 C-0.69079497 38.0723849 -0.76537132 34.27429369 -0.68359375 30.17578125 C-0.66281265 29.31438034 -0.64203156 28.45297943 -0.62062073 27.56547546 C-0.55525091 24.81456456 -0.49629868 22.06355844 -0.4375 19.3125 C-0.39430283 17.44725579 -0.35068815 15.5820212 -0.30664062 13.71679688 C-0.19958237 9.14462876 -0.09827946 4.5723649 0 0 Z " fill="#682889" transform="translate(232,121)"/>
<path d="M0 0 C0.66 0 1.32 0 2 0 C0.125 4.75 0.125 4.75 -1 7 C-1.40226867 12.22949274 -0.9287695 15.60684575 2 20 C3.5778125 20.8971875 3.5778125 20.8971875 5.1875 21.8125 C8 24 8 24 8.59765625 25.96484375 C8.97198462 31.57976929 7.29731851 35.03116692 3.72265625 39.2734375 C0.07992442 42.9244295 -3.92846923 45.86737777 -9.26171875 46.09765625 C-10.06222656 46.08605469 -10.86273438 46.07445312 -11.6875 46.0625 C-12.89986328 46.04896484 -12.89986328 46.04896484 -14.13671875 46.03515625 C-14.75160156 46.02355469 -15.36648437 46.01195312 -16 46 C-16 45.67 -16 45.34 -16 45 C-15.10796875 44.82984375 -14.2159375 44.6596875 -13.296875 44.484375 C-12.12640625 44.24203125 -10.9559375 43.9996875 -9.75 43.75 C-8.00976562 43.40195313 -8.00976562 43.40195313 -6.234375 43.046875 C-2.74703664 41.91812297 -1.28781339 40.81074216 1 38 C1.33 37.34 1.66 36.68 2 36 C2.66 36 3.32 36 4 36 C4 35.34 4 34.68 4 34 C3.34 34 2.68 34 2 34 C1.82057837 30.05272412 1.90649311 27.4019487 4 24 C2.35 24.33 0.7 24.66 -1 25 C-1.13535156 24.28328125 -1.27070313 23.5665625 -1.41015625 22.828125 C-1.9807076 20.09250129 -2.66196904 17.43422116 -3.4375 14.75 C-3.68371094 13.87859375 -3.92992187 13.0071875 -4.18359375 12.109375 C-4.79733926 9.82103402 -4.79733926 9.82103402 -7 9 C-6.3125 6.625 -6.3125 6.625 -5 4 C-2.375 2.6875 -2.375 2.6875 0 2 C0 1.34 0 0.68 0 0 Z " fill="#5D5099" transform="translate(167,119)"/>
<path d="M0 0 C2.4375 1.625 2.4375 1.625 4 4 C4.60605429 7.63632575 4.47161336 9.28314769 2.4375 12.375 C-0.8994213 14.5996142 -3.06905293 14.50030235 -7 14 C-8.9375 13 -8.9375 13 -10 11 C-10.52960415 7.41957756 -10.65886567 4.24021772 -8.9375 1 C-5.82090489 -0.60856522 -3.43737531 -0.42213381 0 0 Z " fill="#5C4E9B" transform="translate(182,123)"/>
<path d="M0 0 C1.32 0 2.64 0 4 0 C4 0.66 4 1.32 4 2 C5.32 2.66 6.64 3.32 8 4 C9.32 2.68 10.64 1.36 12 0 C12.6875 1.8125 12.6875 1.8125 13 4 C11.8125 5.75 11.8125 5.75 10 7 C8.68 7 7.36 7 6 7 C5.401875 6.34 4.80375 5.68 4.1875 5 C2.03061004 2.61019324 2.03061004 2.61019324 -1.75 2.75 C-3.35875 2.87375 -3.35875 2.87375 -5 3 C-6.17673198 5.35346396 -6.16623866 6.8806033 -6.1875 9.5 C-6.20167969 10.2940625 -6.21585938 11.088125 -6.23046875 11.90625 C-6.19666303 14.22033317 -6.19666303 14.22033317 -4 16 C-1.88007625 16.02216246 -1.88007625 16.02216246 0.4375 15.625 C3.02807061 15.25796693 5.37366585 15 8 15 C3.5 19 3.5 19 -1 19 C-1 20.32 -1 21.64 -1 23 C-2.98 23.33 -4.96 23.66 -7 24 C-6.938125 23.13375 -6.87625 22.2675 -6.8125 21.375 C-7.02455502 17.55800967 -8.12044307 15.28922464 -10 12 C-10.33 12 -10.66 12 -11 12 C-11.17942163 8.05272412 -11.09350689 5.4019487 -9 2 C-9.66 2 -10.32 2 -11 2 C-11 1.34 -11 0.68 -11 0 C-6.99186924 -0.69371494 -3.90060516 -1.21053264 0 0 Z " fill="#3A90BD" transform="translate(147,24)"/>
<path d="M0 0 C0 0.66 0 1.32 0 2 C-0.639375 2.103125 -1.27875 2.20625 -1.9375 2.3125 C-2.618125 2.539375 -3.29875 2.76625 -4 3 C-4.33 3.99 -4.66 4.98 -5 6 C-6.95182067 6.49622559 -8.90571919 6.98629678 -10.87109375 7.42578125 C-15.65579521 8.71633375 -18.85278947 11.24851398 -21.375 15.4375 C-25.10510326 23.7489749 -23.10966483 34.22175855 -22 43 C-22.99 43.495 -22.99 43.495 -24 44 C-24.13277344 43.31292969 -24.26554687 42.62585938 -24.40234375 41.91796875 C-24.57894531 41.01691406 -24.75554687 40.11585937 -24.9375 39.1875 C-25.11152344 38.29417969 -25.28554687 37.40085938 -25.46484375 36.48046875 C-25.97741153 33.88602829 -25.97741153 33.88602829 -27 31 C-26.83988879 28.29876894 -26.39559392 25.68124769 -26 23 C-26.66 22.67 -27.32 22.34 -28 22 C-27.34 22 -26.68 22 -26 22 C-26.33 21.01 -26.66 20.02 -27 19 C-27.03954234 16.66700175 -27.04401732 14.33291811 -27 12 C-26.21625 11.9175 -25.4325 11.835 -24.625 11.75 C-21.85250896 11.27193661 -21.85250896 11.27193661 -20.6875 8.9375 C-20.460625 8.298125 -20.23375 7.65875 -20 7 C-19.01 7.33 -18.02 7.66 -17 8 C-17 7.34 -17 6.68 -17 6 C-16.01 6 -15.02 6 -14 6 C-13.62875 5.0409375 -13.62875 5.0409375 -13.25 4.0625 C-12 2 -12 2 -9.875 1.25 C-9.25625 1.1675 -8.6375 1.085 -8 1 C-7.67 1.66 -7.34 2.32 -7 3 C-6.401875 2.505 -5.80375 2.01 -5.1875 1.5 C-3 0 -3 0 0 0 Z " fill="#249DCE" transform="translate(109,25)"/>
<path d="M0 0 C0 2.70254461 -0.03430669 4.50529228 -1 7 C-1.99966797 7.40605469 -1.99966797 7.40605469 -3.01953125 7.8203125 C-3.67308594 8.20960937 -4.32664062 8.59890625 -5 9 C-5.49262358 11.5074984 -5.43745381 13.84303341 -5.43359375 16.39453125 C-6 19 -6 19 -8.50708008 20.97192383 C-12.21183845 25.47198436 -11.61055319 29.40080242 -11.453125 35.0546875 C-11.43895538 36.69354416 -11.43895538 36.69354416 -11.42449951 38.36550903 C-11.38994806 41.86943069 -11.32142792 45.37165345 -11.25 48.875 C-11.18283974 53.43479442 -11.12934898 57.9946893 -11.078125 62.5546875 C-11.0632605 63.67147888 -11.048396 64.78827026 -11.03308105 65.93890381 C-10.91825148 76.98034732 -11.37207167 87.97843708 -12 99 C-12.33 99 -12.66 99 -13 99 C-13.13963084 88.9071075 -13.24593885 78.81444851 -13.31087303 68.72078323 C-13.34205418 64.03274425 -13.3842817 59.34537087 -13.45263672 54.65771484 C-13.51830578 50.12537947 -13.55380518 45.59368023 -13.56926346 41.06090546 C-13.58026527 39.3402481 -13.60174763 37.61962165 -13.63438034 35.89923859 C-13.89170561 21.75795995 -11.30854787 11.96494709 -1.3203125 1.328125 C-0.88460937 0.88984375 -0.44890625 0.4515625 0 0 Z " fill="#2F9DC9" transform="translate(53,13)"/>
<path d="M0 0 C0.33 0 0.66 0 1 0 C1.42064893 6.09940955 1.08964656 9.13663653 -3 14 C-3.86625 14.53625 -4.7325 15.0725 -5.625 15.625 C-9.04806627 19.04806627 -8.9687657 22.52111524 -9.4453125 27.22265625 C-10.05395333 30.27014662 -10.68354669 31.05583383 -13 33 C-13.45375 33.825 -13.9075 34.65 -14.375 35.5 C-16.65848546 39.01305455 -19.44830536 40.35346057 -23.25 41.9375 C-25.20747626 42.87315408 -25.20747626 42.87315408 -25.75 45.125 C-25.8325 45.74375 -25.915 46.3625 -26 47 C-28.97 47.495 -28.97 47.495 -32 48 C-32.33 46.35 -32.66 44.7 -33 43 C-32.33613281 42.75765625 -31.67226562 42.5153125 -30.98828125 42.265625 C-22.91939905 39.20298358 -18.19038815 36.28594444 -14.04296875 28.578125 C-12.89769965 25.74712272 -12.50103145 23.211925 -12.125 20.1875 C-11.71875 17.35546875 -11.71875 17.35546875 -11 15 C-7.625 13 -7.625 13 -5.75390625 12.234375 C-1.98698381 9.58326701 -1.18173608 4.25718588 0 0 Z " fill="#613D8E" transform="translate(193,128)"/>
<path d="M0 0 C0 0.66 0 1.32 0 2 C0.99 2 1.98 2 3 2 C3.48695652 9.42608696 3.48695652 9.42608696 1.25 12.0625 C-1 13 -1 13 -3.125 12.8125 C-5 12 -5 12 -7 10 C-9.44012949 9.75712511 -9.44012949 9.75712511 -12.125 9.875 C-13.03507812 9.89304687 -13.94515625 9.91109375 -14.8828125 9.9296875 C-15.58148438 9.95289063 -16.28015625 9.97609375 -17 10 C-17 9.34 -17 8.68 -17 8 C-16.38511719 7.74605469 -15.77023438 7.49210937 -15.13671875 7.23046875 C-14.32847656 6.88628906 -13.52023438 6.54210938 -12.6875 6.1875 C-11.88699219 5.85105469 -11.08648437 5.51460937 -10.26171875 5.16796875 C-8.01456993 4.00752402 -6.74767711 2.78684074 -5 1 C-2 0 -2 0 0 0 Z " fill="#FAFDFB" transform="translate(113,27)"/>
<path d="M0 0 C5.8635013 0.4043794 9.3050446 1.17852467 14 5 C15.875 7.25 15.875 7.25 17 9 C16.67 9.66 16.34 10.32 16 11 C14.35 10.01 12.7 9.02 11 8 C11.495 8.845625 11.99 9.69125 12.5 10.5625 C14.17902815 14.41027285 14.38472988 16.84491725 14 21 C13.37576 22.35371586 12.71642898 23.69273119 12 25 C11.93941406 24.16855469 11.87882813 23.33710937 11.81640625 22.48046875 C11.69072266 20.85044922 11.69072266 20.85044922 11.5625 19.1875 C11.48128906 18.10855469 11.40007812 17.02960937 11.31640625 15.91796875 C11.09787539 12.94010095 11.09787539 12.94010095 10 10 C6.45779454 8.17829434 2.92234364 7.54730376 -1 7 C-1 6.34 -1 5.68 -1 5 C-0.01 4.34 0.98 3.68 2 3 C1.34 2.01 0.68 1.02 0 0 Z " fill="#E7F6FC" transform="translate(154,31)"/>
<path d="M0 0 C0 3 0 3 -1 5 C-1.22094972 20.02876345 -1.22094972 20.02876345 4 33 C3.625 35.125 3.625 35.125 3 37 C3.66 37.33 4.32 37.66 5 38 C5.88671875 40.6171875 5.88671875 40.6171875 6.6875 43.875 C6.95949219 44.94492188 7.23148438 46.01484375 7.51171875 47.1171875 C8 50 8 50 7 53 C4.83727404 50.83727404 4.43396332 49.72012925 3.5625 46.8515625 C3.30807129 46.01713623 3.05364258 45.18270996 2.79150391 44.32299805 C2.53030762 43.43265869 2.26911133 42.54231934 2 41.625 C1.7323584 40.71468018 1.4647168 39.80436035 1.18896484 38.86645508 C-2.0935836 27.46674623 -4.33163458 15.91311797 -3 4 C-1.48046875 1.5625 -1.48046875 1.5625 0 0 Z " fill="#3B93BE" transform="translate(95,41)"/>
<path d="M0 0 C7.75957454 -0.05066736 15.51910648 -0.08571984 23.27880859 -0.10986328 C25.91912429 -0.11992719 28.55942883 -0.13357952 31.19970703 -0.15087891 C34.99254103 -0.17510971 38.78522779 -0.18647923 42.578125 -0.1953125 C44.35174408 -0.21079636 44.35174408 -0.21079636 46.16119385 -0.22659302 C47.26203308 -0.22674408 48.36287231 -0.22689514 49.49707031 -0.22705078 C50.46525696 -0.231492 51.4334436 -0.23593323 52.43096924 -0.24050903 C55.08981662 0.0084085 56.72274387 0.64441446 59 2 C58.01 2.66 57.02 3.32 56 4 C55.4225 3.835 54.845 3.67 54.25 3.5 C50.86304345 2.74734299 48.23488785 3.94244051 45 5 C45 3.68 45 2.36 45 1 C44.19804199 1.16749756 43.39608398 1.33499512 42.56982422 1.50756836 C38.28224133 2.09900966 34.19900473 2.02084417 29.8828125 1.87890625 C29.02565643 1.85529526 28.16850037 1.83168427 27.28536987 1.80735779 C24.56505852 1.73118088 21.8450655 1.64696063 19.125 1.5625 C17.27345274 1.50923321 15.42189025 1.45649317 13.5703125 1.40429688 C9.04667589 1.27562847 4.5233073 1.13974909 0 1 C0 0.67 0 0.34 0 0 Z " fill="#318EBD" transform="translate(147,4)"/>
<path d="M0 0 C0.47308594 0.38671875 0.94617188 0.7734375 1.43359375 1.171875 C10.66505633 8.44187672 18.23362522 10.63627899 30 11 C26.36383344 12.9789756 23.11574371 13.5251065 19 14 C19 13.34 19 12.68 19 12 C17.8553125 12.0309375 17.8553125 12.0309375 16.6875 12.0625 C14 12 14 12 11 11 C10.01 12.485 10.01 12.485 9 14 C7.10786631 11.61426621 5.97608217 9.92824652 5 7 C4.01 7 3.02 7 2 7 C1.01 6.67 0.02 6.34 -1 6 C-1.042721 4.33388095 -1.04063832 2.66617115 -1 1 C-0.67 0.67 -0.34 0.34 0 0 Z " fill="#5A4993" transform="translate(130,161)"/>
<path d="M0 0 C1.99097846 2.98646769 2.94124926 5.59687262 4 9 C4.66 9 5.32 9 6 9 C6 9.99 6 10.98 6 12 C6.66 12 7.32 12 8 12 C8 11.34 8 10.68 8 10 C8.66 10 9.32 10 10 10 C10.38133299 11.9914056 10.71325582 13.99279077 11 16 C10.67 16.33 10.34 16.66 10 17 C12.31 17.99 14.62 18.98 17 20 C17 20.33 17 20.66 17 21 C13.44751055 21.30801932 11.55430654 21.35907908 8.515625 19.390625 C7.76796875 18.68421875 7.0203125 17.9778125 6.25 17.25 C5.49203125 16.55390625 4.7340625 15.8578125 3.953125 15.140625 C0.70161035 11.57696495 -0.26648054 9.06033827 -0.125 4.25 C-0.10695312 3.45078125 -0.08890625 2.6515625 -0.0703125 1.828125 C-0.04710937 1.22484375 -0.02390625 0.6215625 0 0 Z " fill="#564F99" transform="translate(133,143)"/>
<path d="M0 0 C0.99 0.495 0.99 0.495 2 1 C1.97679687 1.62648438 1.95359375 2.25296875 1.9296875 2.8984375 C1.91164062 3.71570313 1.89359375 4.53296875 1.875 5.375 C1.85179687 6.18710937 1.82859375 6.99921875 1.8046875 7.8359375 C1.78629949 10.21342243 1.78629949 10.21342243 4 12 C6.11992375 12.02216246 6.11992375 12.02216246 8.4375 11.625 C11.02807061 11.25796693 13.37366585 11 16 11 C11.5 15 11.5 15 7 15 C7 16.32 7 17.64 7 19 C5.02 19.33 3.04 19.66 1 20 C1.020625 19.030625 1.04125 18.06125 1.0625 17.0625 C1.35618499 14.12534105 1.35618499 14.12534105 0 13 C-0.07258946 10.81360547 -0.08373783 8.62499611 -0.0625 6.4375 C-0.05347656 5.23996094 -0.04445312 4.04242188 -0.03515625 2.80859375 C-0.02355469 1.88175781 -0.01195312 0.95492188 0 0 Z " fill="#458DB9" transform="translate(139,28)"/>
<path d="M0 0 C0.66 0 1.32 0 2 0 C0.40821277 6.01341841 -4.04050923 9.21897312 -9.16796875 12.3046875 C-13.02278037 14.34092679 -13.02278037 14.34092679 -15 15 C-17 14 -17 14 -18 12 C-17.29875 11.979375 -16.5975 11.95875 -15.875 11.9375 C-11.6206376 10.55020791 -9.64692861 7.48375828 -7 4 C-6.01 4.33 -5.02 4.66 -4 5 C-3.34 4.01 -2.68 3.02 -2 2 C-1.34 2 -0.68 2 0 2 C0 1.34 0 0.68 0 0 Z " fill="#26396F" transform="translate(431,128)"/>
<path d="M0 0 C0.66 0.33 1.32 0.66 2 1 C1.95875 2.051875 1.9175 3.10375 1.875 4.1875 C1.99147875 7.74010173 2.47208068 9.84866641 4 13 C1 12 1 12 -0.25 9.625 C-2.64256458 6.03615313 -4.94243717 5.30667278 -9 4 C-12.85891615 3.69128671 -16.24081191 4.11548516 -20 5 C-19.67 4.01 -19.34 3.02 -19 2 C-12.23893038 0.72432649 -6.68650564 1.51274415 0 3 C0 2.01 0 1.02 0 0 Z " fill="#515198" transform="translate(190,113)"/>
<path d="M0 0 C0.33 1.65 0.66 3.3 1 5 C0.236875 4.938125 -0.52625 4.87625 -1.3125 4.8125 C-3.97210611 4.75842555 -3.97210611 4.75842555 -5.625 6.1875 C-7.27219157 8.35879798 -8.61628938 10.65370807 -10 13 C-10.66 13.66 -11.32 14.32 -12 15 C-13.32 15 -14.64 15 -16 15 C-15.34 13.68 -14.68 12.36 -14 11 C-13.01 11 -12.02 11 -11 11 C-10.7834375 9.824375 -10.7834375 9.824375 -10.5625 8.625 C-10 6 -10 6 -9 4 C-7.68 4 -6.36 4 -5 4 C-5 3.34 -5 2.68 -5 2 C-2 0 -2 0 0 0 Z " fill="#16B5E1" transform="translate(63,9)"/>
<path d="M0 0 C3.375 0.3125 3.375 0.3125 7 1 C9.5175092 4.7762638 9.73941121 7.56353277 9 12 C7.375 14 7.375 14 5 15 C0.89718519 15.41865457 -0.51131349 15.32579101 -4 13 C-6.05709596 12.75944532 -6.05709596 12.75944532 -8.1875 12.875 C-9.445625 12.91625 -10.70375 12.9575 -12 13 C-12 12.34 -12 11.68 -12 11 C-8.7 10.67 -5.4 10.34 -2 10 C-1.01 11.485 -1.01 11.485 0 13 C2.16874252 12.49396008 3.99967627 12.00016187 6 11 C6.46523063 9.10466658 6.46523063 9.10466658 6.625 6.9375 C6.74875 5.638125 6.8725 4.33875 7 3 C6.01 3 5.02 3 4 3 C4 2.34 4 1.68 4 1 C2.68 0.67 1.36 0.34 0 0 Z " fill="#CCEFFA" transform="translate(109,26)"/>
<path d="M0 0 C0 0.66 0 1.32 0 2 C-0.639375 2.103125 -1.27875 2.20625 -1.9375 2.3125 C-2.618125 2.539375 -3.29875 2.76625 -4 3 C-4.33 3.99 -4.66 4.98 -5 6 C-6.92166153 6.49698143 -8.8470132 6.98438726 -10.7890625 7.39453125 C-14.25272667 8.34306119 -16.96551318 10.10344574 -20 12 C-19.67 10.68 -19.34 9.36 -19 8 C-18.34 8 -17.68 8 -17 8 C-17 7.34 -17 6.68 -17 6 C-16.01 6 -15.02 6 -14 6 C-13.7525 5.360625 -13.505 4.72125 -13.25 4.0625 C-12 2 -12 2 -9.875 1.25 C-9.25625 1.1675 -8.6375 1.085 -8 1 C-7.67 1.66 -7.34 2.32 -7 3 C-6.401875 2.505 -5.80375 2.01 -5.1875 1.5 C-3 0 -3 0 0 0 Z " fill="#2CA2D5" transform="translate(109,25)"/>
<path d="M0 0 C0.68707555 2.49064888 1 4.37886292 1 7 C-0.6459651 8.68711423 -2.31237149 10.3545622 -4 12 C-4 12.66 -4 13.32 -4 14 C-5.59711646 15.39131742 -7.25352684 16.71517335 -8.9375 18 C-12.51216924 20.54336771 -12.51216924 20.54336771 -15 24 C-16.32 24 -17.64 24 -19 24 C-19 24.66 -19 25.32 -19 26 C-20.98 26 -22.96 26 -25 26 C-22 24 -22 24 -19.80078125 22.80859375 C-10.02602364 17.42250282 -3.78507437 10.53346354 0 0 Z " fill="#DCE5EF" transform="translate(355,115)"/>
<path d="M0 0 C0.33 0 0.66 0 1 0 C1.42064893 6.09940955 1.08964656 9.13663653 -3 14 C-3.886875 14.639375 -4.77375 15.27875 -5.6875 15.9375 C-8.80658704 18.71938845 -8.76551114 20.93552643 -9 25 C-9.99 25 -10.98 25 -12 25 C-12.04607217 21.55116906 -11.91552781 18.33741824 -11 15 C-7.6875 13.0625 -7.6875 13.0625 -5.7890625 12.26953125 C-2.00089758 9.58142296 -1.19261615 4.29638117 0 0 Z " fill="#5E4790" transform="translate(193,128)"/>
<path d="M0 0 C4.17357682 -0.08183484 7.93762703 0.03785903 12 1 C13.3921875 1.2784375 13.3921875 1.2784375 14.8125 1.5625 C15.534375 1.706875 16.25625 1.85125 17 2 C17 4.31 17 6.62 17 9 C16.01 9.495 16.01 9.495 15 10 C12 9 12 9 10.3125 6.625 C7.19481869 3.08601041 4.46058005 2.41251702 0 1 C0 0.67 0 0.34 0 0 Z " fill="#3F83B7" transform="translate(158,31)"/>
<path d="M0 0 C5.68502535 1.64566523 10.76681636 4.29032784 16 7 C15.01 8.485 15.01 8.485 14 10 C13.67 9.01 13.34 8.02 13 7 C10.03 6.67 7.06 6.34 4 6 C4 5.34 4 4.68 4 4 C1.36 4.99 -1.28 5.98 -4 7 C-2.79618552 4.50638429 -1.54571278 2.31856917 0 0 Z " fill="#223463" transform="translate(497,120)"/>
<path d="M0 0 C-1.45016194 3.63328617 -3.22192317 5.11741577 -6.5 7.1875 C-7.2940625 7.69667969 -8.088125 8.20585938 -8.90625 8.73046875 C-12.88023033 11.14006503 -15.43921485 11.10509805 -20.125 11.0625 C-21.40632813 11.05347656 -22.68765625 11.04445313 -24.0078125 11.03515625 C-25.48894531 11.01775391 -25.48894531 11.01775391 -27 11 C-27 10.67 -27 10.34 -27 10 C-26.04738281 9.89042969 -25.09476562 9.78085938 -24.11328125 9.66796875 C-22.85902344 9.50941406 -21.60476562 9.35085937 -20.3125 9.1875 C-18.45044922 8.96126953 -18.45044922 8.96126953 -16.55078125 8.73046875 C-13.04531617 8.00932247 -10.95399523 6.94271758 -8 5 C-7.34 5 -6.68 5 -6 5 C-6 4.34 -6 3.68 -6 3 C-3.89994105 0.39992701 -3.48266577 0 0 0 Z " fill="#51689F" transform="translate(149,106)"/>
<path d="M0 0 C0 0.99 0 1.98 0 3 C0.66 3.33 1.32 3.66 2 4 C2.38218767 5.65614657 2.71395102 7.32457024 3 9 C3.33 9.66 3.66 10.32 4 11 C3.0625 13.125 3.0625 13.125 2 15 C1.0165504 13.56542672 0.03839079 12.12722594 -0.9375 10.6875 C-1.48277344 9.88699219 -2.02804688 9.08648437 -2.58984375 8.26171875 C-4 6 -4 6 -5 3 C-2.25 0 -2.25 0 0 0 Z " fill="#3E79BA" transform="translate(108,94)"/>
<path d="M0 0 C3.3 0.99 6.6 1.98 10 3 C10 10.92 10 18.84 10 27 C9.01 27 8.02 27 7 27 C7 25.68 7 24.36 7 23 C7.66 23 8.32 23 9 23 C8.67 16.73 8.34 10.46 8 4 C5.36 4 2.72 4 0 4 C0 2.68 0 1.36 0 0 Z " fill="#4E60A0" transform="translate(115,121)"/>
<path d="M0 0 C5.27710354 2.3439244 9.15080717 4.66965806 13 9 C11.783125 8.835 10.56625 8.67 9.3125 8.5 C6.18392164 8.10545459 3.15831196 7.90130275 0 8 C-0.99435406 4.90645403 -0.87840996 3.09720845 0 0 Z " fill="#3F85BD" transform="translate(209,7)"/>
<path d="M0 0 C-0.33 0.99 -0.66 1.98 -1 3 C-1.66 3 -2.32 3 -3 3 C-3 3.66 -3 4.32 -3 5 C-4.32 4.67 -5.64 4.34 -7 4 C-7.90833969 6.72501908 -8.18359985 8.62233971 -8.31640625 11.44921875 C-8.35830078 12.29677734 -8.40019531 13.14433594 -8.44335938 14.01757812 C-8.48267578 14.89865234 -8.52199219 15.77972656 -8.5625 16.6875 C-8.60568359 17.58017578 -8.64886719 18.47285156 -8.69335938 19.39257812 C-8.79935353 21.59490108 -8.90142051 23.79733473 -9 26 C-9.33 26 -9.66 26 -10 26 C-10 18.08 -10 10.16 -10 2 C-2 0 -2 0 0 0 Z " fill="#747FB7" transform="translate(142,122)"/>
<path d="M0 0 C1.485 0.99 1.485 0.99 3 2 C2.67 3.32 2.34 4.64 2 6 C2.66 6.33 3.32 6.66 4 7 C4.88671875 9.6171875 4.88671875 9.6171875 5.6875 12.875 C5.95949219 13.94492188 6.23148437 15.01484375 6.51171875 16.1171875 C7 19 7 19 6 22 C1.96172116 17.96172116 0.30360616 11.0268614 -0.2578125 5.4296875 C-0.25131815 3.61776421 -0.13896907 1.80659785 0 0 Z " fill="#3882B5" transform="translate(96,72)"/>
<path d="M0 0 C2.875 -0.1875 2.875 -0.1875 6 0 C6.66 0.99 7.32 1.98 8 3 C7.67 3.99 7.34 4.98 7 6 C10.31114834 7.12880057 13.58978257 8.21302675 17 9 C17 9.66 17 10.32 17 11 C15.375 11.75 15.375 11.75 13 12 C10.0625 10.3125 10.0625 10.3125 7 8 C6.0925 7.34 5.185 6.68 4.25 6 C2.07636784 4.06788252 1.0516213 2.67685421 0 0 Z " fill="#4F5D9A" transform="translate(48,178)"/>
<path d="M0 0 C7.26 0 14.52 0 22 0 C20.22157001 4.44607497 19.35585467 5.9797308 16 9 C15.67 6.69 15.34 4.38 15 2 C10.05 1.67 5.1 1.34 0 1 C0 0.67 0 0.34 0 0 Z " fill="#344171" transform="translate(578,56)"/>
<path d="M0 0 C3.44480805 0.29526926 5.05494696 1.04061297 7.875 3.125 C10 6 10 6 9.8125 9.8125 C9.544375 10.864375 9.27625 11.91625 9 13 C8.67 12.01 8.34 11.02 8 10 C6.68 10 5.36 10 4 10 C4 9.34 4 8.68 4 8 C4.66 8 5.32 8 6 8 C6 7.34 6 6.68 6 6 C4.68 6 3.36 6 2 6 C1.34 4.02 0.68 2.04 0 0 Z " fill="#2F7FBB" transform="translate(156,38)"/>
<path d="M0 0 C0.33 0.66 0.66 1.32 1 2 C1.99 1.67 2.98 1.34 4 1 C3.9260095 4.1076009 3.63075777 6.27573366 1.55078125 8.6640625 C-4.7970343 14.25454648 -9.68382408 15.32612455 -18 15 C-18 14.67 -18 14.34 -18 14 C-17.10796875 13.82984375 -16.2159375 13.6596875 -15.296875 13.484375 C-14.12640625 13.24203125 -12.9559375 12.9996875 -11.75 12.75 C-10.58984375 12.51796875 -9.4296875 12.2859375 -8.234375 12.046875 C-4.74703664 10.91812297 -3.28781339 9.81074216 -1 7 C-0.67 6.34 -0.34 5.68 0 5 C0.66 5 1.32 5 2 5 C2 4.34 2 3.68 2 3 C1.34 3 0.68 3 0 3 C0 2.01 0 1.02 0 0 Z " fill="#584790" transform="translate(169,150)"/>
<path d="M0 0 C0.33 0 0.66 0 1 0 C1.01458252 0.71019287 1.02916504 1.42038574 1.04418945 2.15209961 C1.11931625 5.41440778 1.21576133 8.67576398 1.3125 11.9375 C1.33505859 13.05447266 1.35761719 14.17144531 1.38085938 15.32226562 C1.59905549 22.08634534 2.46095861 27.72842335 5 34 C5.33 34.99 5.66 35.98 6 37 C5.01 37.495 5.01 37.495 4 38 C3.67 36.68 3.34 35.36 3 34 C2.34 34 1.68 34 1 34 C0.17777446 29.70394268 -0.11770795 25.66033397 -0.09765625 21.2890625 C-0.09443359 20.04511719 -0.09121094 18.80117187 -0.08789062 17.51953125 C-0.07951172 16.23433594 -0.07113281 14.94914063 -0.0625 13.625 C-0.05798828 12.31660156 -0.05347656 11.00820312 -0.04882812 9.66015625 C-0.03707594 6.44005719 -0.02064543 3.2200523 0 0 Z " fill="#7377AB" transform="translate(125,124)"/>
<path d="M0 0 C1.75854233 3.21628137 2.80417511 6.39957955 3.75 9.9375 C4.03359375 10.95714844 4.3171875 11.97679688 4.609375 13.02734375 C5.04901433 16.37299903 4.51013908 18.02896551 3 21 C1.5 20 1.5 20 0 18 C-0.23092232 15.31140445 -0.08587328 12.70500833 0 10 C-0.33 9.34 -0.66 8.68 -1 8 C-0.83219837 5.30434798 -0.38844355 2.67594446 0 0 Z " fill="#347EB4" transform="translate(89,78)"/>
<path d="M0 0 C0.66 0 1.32 0 2 0 C0.125 4.75 0.125 4.75 -1 7 C-1.22622081 8.70363822 -1.40888473 10.41328701 -1.5625 12.125 C-1.64628906 13.03507813 -1.73007813 13.94515625 -1.81640625 14.8828125 C-1.87699219 15.58148438 -1.93757812 16.28015625 -2 17 C-3.20628008 14.66785852 -4.1654738 12.50357861 -5 10 C-5.66 9.67 -6.32 9.34 -7 9 C-6.3125 6.625 -6.3125 6.625 -5 4 C-2.375 2.6875 -2.375 2.6875 0 2 C0 1.34 0 0.68 0 0 Z " fill="#4D5399" transform="translate(167,119)"/>
<path d="M0 0 C-0.33 1.98 -0.66 3.96 -1 6 C-1.66 5.34 -2.32 4.68 -3 4 C-3.433125 4.433125 -3.86625 4.86625 -4.3125 5.3125 C-4.869375 5.869375 -5.42625 6.42625 -6 7 C-6.7115625 7.8353125 -6.7115625 7.8353125 -7.4375 8.6875 C-9 10 -9 10 -13 10 C-13 9.34 -13 8.68 -13 8 C-12.34 7.67 -11.68 7.34 -11 7 C-10.67 6.01 -10.34 5.02 -10 4 C-8.4765625 2.83203125 -8.4765625 2.83203125 -6.625 1.8125 C-6.01914063 1.46832031 -5.41328125 1.12414062 -4.7890625 0.76953125 C-3 0 -3 0 0 0 Z " fill="#4C5DA5" transform="translate(152,117)"/>
<path d="M0 0 C3.375 -0.4375 3.375 -0.4375 7 0 C9.4375 2 9.4375 2 11 4 C9.01432292 3.93489583 7.02864583 3.86979167 5.04296875 3.8046875 C2.68640281 3.86745538 2.68640281 3.86745538 0 6 C-0.73343428 9.06556598 -0.73343428 9.06556598 -1 12 C-1.33 12 -1.66 12 -2 12 C-2.05422947 10.5629191 -2.09289723 9.12524538 -2.125 7.6875 C-2.14820313 6.88699219 -2.17140625 6.08648437 -2.1953125 5.26171875 C-2 3 -2 3 0 0 Z " fill="#D2F0FA" transform="translate(142,26)"/>
<path d="M0 0 C2.475 0.495 2.475 0.495 5 1 C5.0825 1.70125 5.165 2.4025 5.25 3.125 C5.88052857 6.19995012 5.88052857 6.19995012 8.125 9.125 C8.74375 10.07375 9.3625 11.0225 10 12 C9.67 12.99 9.34 13.98 9 15 C4.99153025 11.3255694 2.4396032 7.87920641 0 3 C0 2.01 0 1.02 0 0 Z " fill="#273564" transform="translate(449,121)"/>
<path d="M0 0 C0.66 0.33 1.32 0.66 2 1 C1.75636719 2.04607422 1.75636719 2.04607422 1.5078125 3.11328125 C0.01929078 11.57495471 0.92854638 20.52403654 2 29 C1.34 29.33 0.68 29.66 0 30 C-0.98017103 27.05948692 -1.12885886 25.13438063 -1.1328125 22.0703125 C-1.13410156 21.10996094 -1.13539062 20.14960937 -1.13671875 19.16015625 C-1.13285156 18.15855469 -1.12898438 17.15695313 -1.125 16.125 C-1.12886719 15.13113281 -1.13273437 14.13726562 -1.13671875 13.11328125 C-1.13542969 12.15035156 -1.13414063 11.18742187 -1.1328125 10.1953125 C-1.13168457 9.31891113 -1.13055664 8.44250977 -1.12939453 7.53955078 C-0.9969249 4.9396469 -0.573267 2.53615142 0 0 Z " fill="#3F9BC4" transform="translate(85,39)"/>
<path d="M0 0 C0.90492187 0.02320312 1.80984375 0.04640625 2.7421875 0.0703125 C4.10730469 0.09738281 4.10730469 0.09738281 5.5 0.125 C6.19867188 0.14820312 6.89734375 0.17140625 7.6171875 0.1953125 C7.6171875 0.5253125 7.6171875 0.8553125 7.6171875 1.1953125 C5.3071875 1.5253125 2.9971875 1.8553125 0.6171875 2.1953125 C0.2871875 3.8453125 -0.0428125 5.4953125 -0.3828125 7.1953125 C-3.3528125 6.7003125 -3.3528125 6.7003125 -6.3828125 6.1953125 C-3.63053977 0.29758523 -3.63053977 0.29758523 0 0 Z " fill="#E3EAF4" transform="translate(124.3828125,116.8046875)"/>
<path d="M0 0 C0.66 0.33 1.32 0.66 2 1 C-1.63 6.28 -5.26 11.56 -9 17 C-10.0536628 13.83901159 -10.21514551 12.99112741 -9 10 C-7.67732273 8.98594743 -6.34275169 7.98731742 -5 7 C-3.9590934 5.35857037 -2.95495674 3.69287785 -2 2 C-1.34 1.34 -0.68 0.68 0 0 Z " fill="#E6F0F6" transform="translate(528,122)"/>
<path d="M0 0 C0.66 0 1.32 0 2 0 C1.94199219 0.90621094 1.88398438 1.81242187 1.82421875 2.74609375 C1.52192512 10.90802179 2.08325643 16.36239618 7 23 C6.34 23.66 5.68 24.32 5 25 C4.896875 24.360625 4.79375 23.72125 4.6875 23.0625 C4.3471875 22.0415625 4.3471875 22.0415625 4 21 C3.01 20.67 2.02 20.34 1 20 C0.09761253 17.29283758 -0.11851302 15.76223232 -0.09765625 12.98828125 C-0.09443359 12.23095703 -0.09121094 11.47363281 -0.08789062 10.69335938 C-0.07951172 9.90767578 -0.07113281 9.12199219 -0.0625 8.3125 C-0.05798828 7.51521484 -0.05347656 6.71792969 -0.04882812 5.89648438 C-0.0370585 3.93095743 -0.01912348 1.96546915 0 0 Z " fill="#273562" transform="translate(385,102)"/>
<path d="M0 0 C4.10958767 1.45044271 7.43258745 3.51110752 11 6 C7.47652211 6.9395941 4.68770169 7 1 7 C0.67 4.69 0.34 2.38 0 0 Z " fill="#28386B" transform="translate(418,79)"/>
<path d="M0 0 C2.64 0 5.28 0 8 0 C8.33 0.66 8.66 1.32 9 2 C2.49577707 4.00865708 -3.1781317 5.38614349 -10 5 C-8 3 -8 3 -4.4375 2.5 C-3.303125 2.335 -2.16875 2.17 -1 2 C-0.67 1.34 -0.34 0.68 0 0 Z " fill="#273767" transform="translate(324,138)"/>
<path d="M0 0 C0.66 1.32 1.32 2.64 2 4 C2.99 4 3.98 4 5 4 C5.99 5.485 5.99 5.485 7 7 C7.66 6.67 8.32 6.34 9 6 C9.99 6.66 10.98 7.32 12 8 C9.69 8.66 7.38 9.32 5 10 C3.88625 8.8553125 3.88625 8.8553125 2.75 7.6875 C0.5736677 5.5606298 -1.52167796 3.7440044 -4 2 C-2.68 1.34 -1.36 0.68 0 0 Z " fill="#2F406E" transform="translate(492,90)"/>
<path d="M0 0 C2 2 2 2 2 5 C-0.64 5.99 -3.28 6.98 -6 8 C-6.33 7.34 -6.66 6.68 -7 6 C-6.67 5.34 -6.34 4.68 -6 4 C-5.34 4 -4.68 4 -4 4 C-4 3.34 -4 2.68 -4 2 C-2.68 1.34 -1.36 0.68 0 0 Z " fill="#2A3968" transform="translate(511,89)"/>
<path d="M0 0 C0.33 0 0.66 0 1 0 C1.48736475 6.70126536 0.07708804 11.06561592 -3 17 C-3.33 17 -3.66 17 -4 17 C-3.45018084 10.95198929 -2.09570426 5.69398894 0 0 Z " fill="#4F6FA9" transform="translate(170,74)"/>
<path d="M0 0 C0 2.70254461 -0.03430669 4.50529228 -1 7 C-1.6290625 7.28488281 -2.258125 7.56976563 -2.90625 7.86328125 C-5.49400056 9.26819806 -6.05268804 10.47380923 -7.25 13.125 C-7.58515625 13.84945313 -7.9203125 14.57390625 -8.265625 15.3203125 C-8.50796875 15.87460937 -8.7503125 16.42890625 -9 17 C-9.66 17 -10.32 17 -11 17 C-9.71415249 12.40191701 -7.99307926 9.34199498 -4.9375 5.6875 C-4.22464844 4.82511719 -3.51179688 3.96273438 -2.77734375 3.07421875 C-1.87876325 2.02554568 -0.97651476 0.97651476 0 0 Z " fill="#36B5CF" transform="translate(53,13)"/>
<path d="M0 0 C0.9203899 3.10631593 1.56280301 5.78398281 1 9 C-2 11.3125 -2 11.3125 -5 13 C-4.67 10.69 -4.34 8.38 -4 6 C-3.34 6 -2.68 6 -2 6 C-1.34 4.02 -0.68 2.04 0 0 Z " fill="#18AFD8" transform="translate(46,24)"/>
<path d="M0 0 C2.79872437 2.52788007 4.45773019 4.20411134 5 8 C2.69 7.67 0.38 7.34 -2 7 C-2 5.68 -2 4.36 -2 3 C-1.34 3 -0.68 3 0 3 C0 2.01 0 1.02 0 0 Z " fill="#2B3C6B" transform="translate(596,135)"/>
<path d="M0 0 C2.23574822 2.23574822 3.24368358 4.28966629 4.625 7.125 C5.07101563 8.03507812 5.51703125 8.94515625 5.9765625 9.8828125 C6.31429687 10.58148438 6.65203125 11.28015625 7 12 C6.01 12 5.02 12 4 12 C3.67 12.66 3.34 13.32 3 14 C1.56976822 9.32790951 0.59619955 4.86896303 0 0 Z " fill="#4B81B4" transform="translate(95,98)"/>
<path d="M0 0 C1.45594322 4.5982667 0.61776964 8.527841 -1 13 C-3.125 15.0625 -3.125 15.0625 -5 16 C-4.39363767 10.23955788 -2.24341721 5.27985631 0 0 Z " fill="#5A71A8" transform="translate(164,92)"/>
<path d="M0 0 C-0.99 1.485 -0.99 1.485 -2 3 C-2 2.34 -2 1.68 -2 1 C-9.59 1.33 -17.18 1.66 -25 2 C-25 1.34 -25 0.68 -25 0 C-21.77138267 -0.19789024 -18.54210273 -0.38146345 -15.3125 -0.5625 C-14.40048828 -0.61857422 -13.48847656 -0.67464844 -12.54882812 -0.73242188 C-11.21948242 -0.80493164 -11.21948242 -0.80493164 -9.86328125 -0.87890625 C-9.05157471 -0.9260376 -8.23986816 -0.97316895 -7.40356445 -1.02172852 C-4.8210515 -0.99838228 -2.51150091 -0.5804792 0 0 Z " fill="#DFE8F3" transform="translate(602,55)"/>
<path d="M0 0 C1.23556641 0.01740234 1.23556641 0.01740234 2.49609375 0.03515625 C3.32238281 0.04417969 4.14867187 0.05320313 5 0.0625 C5.63808594 0.07410156 6.27617187 0.08570313 6.93359375 0.09765625 C5.61359375 0.42765625 4.29359375 0.75765625 2.93359375 1.09765625 C2.93359375 2.41765625 2.93359375 3.73765625 2.93359375 5.09765625 C0.95359375 5.42765625 -1.02640625 5.75765625 -3.06640625 6.09765625 C-3.10912725 4.4315372 -3.10704457 2.7638274 -3.06640625 1.09765625 C-2.06640625 0.09765625 -2.06640625 0.09765625 0 0 Z " fill="#2F89C4" transform="translate(143.06640625,41.90234375)"/>
<path d="M0 0 C2.93752254 0.30388164 3.84080893 0.80669656 5.75 3.125 C7.29194697 6.67147803 7.34868989 9.16441116 7 13 C6.37666832 14.35413435 5.71763365 15.69339212 5 17 C4.93941406 16.16855469 4.87882813 15.33710937 4.81640625 14.48046875 C4.73261719 13.39378906 4.64882812 12.30710937 4.5625 11.1875 C4.48128906 10.10855469 4.40007812 9.02960937 4.31640625 7.91796875 C4.09787539 4.94010095 4.09787539 4.94010095 3 2 C2.01 1.67 1.02 1.34 0 1 C0 0.67 0 0.34 0 0 Z " fill="#C8E0EE" transform="translate(161,39)"/>
<path d="M0 0 C2.1875 0.3125 2.1875 0.3125 4 1 C2.88625 1.6496875 2.88625 1.6496875 1.75 2.3125 C-0.94871186 3.88553152 -0.94871186 3.88553152 -3 5.625 C-5.32311419 7.22214101 -7.23084393 7.61539499 -10 8 C-10.33 7.01 -10.66 6.02 -11 5 C-9.1128125 4.5978125 -9.1128125 4.5978125 -7.1875 4.1875 C-3.83281053 3.37388463 -2.38065334 2.49968601 0 0 Z " fill="#E0F8FD" transform="translate(107,27)"/>
<path d="M0 0 C1.98 0.99 1.98 0.99 4 2 C3.67 6.29 3.34 10.58 3 15 C0 12 0 12 -0.3125 9.0625 C-0.01578279 6.15467137 0.48605948 4.46015335 2 2 C1.34 2 0.68 2 0 2 C0 1.34 0 0.68 0 0 Z " fill="#2890C6" transform="translate(136,24)"/>
<path d="M0 0 C0.66 0.99 1.32 1.98 2 3 C2.33 3 2.66 3 3 3 C3 4.98 3 6.96 3 9 C0.69 8.34 -1.62 7.68 -4 7 C-1.125 1.125 -1.125 1.125 0 0 Z " fill="#455DA4" transform="translate(157,109)"/>
<path d="M0 0 C0.99 0.33 1.98 0.66 3 1 C4.1875 4.5625 4.1875 4.5625 5 8 C4.34 8 3.68 8 3 8 C3.165 8.680625 3.33 9.36125 3.5 10.0625 C4.07089059 13.4164822 4.06659023 16.60389805 4 20 C3.67 20 3.34 20 3 20 C2.86722656 18.89140625 2.73445312 17.7828125 2.59765625 16.640625 C2.41940243 15.1770673 2.24100972 13.71352651 2.0625 12.25 C1.97548828 11.52039062 1.88847656 10.79078125 1.79882812 10.0390625 C1.37972591 6.62415558 0.882726 3.32396457 0 0 Z " fill="#4379AE" transform="translate(171,40)"/>
<path d="M0 0 C0.99 0.66 1.98 1.32 3 2 C3.375 4.9375 3.375 4.9375 3 8 C1.5 9.875 1.5 9.875 0 11 C-0.66 9.02 -1.32 7.04 -2 5 C-1.01 5 -0.02 5 1 5 C0.67 3.35 0.34 1.7 0 0 Z " fill="#635899" transform="translate(183,125)"/>
<path d="M0 0 C1.4540625 0.0309375 1.4540625 0.0309375 2.9375 0.0625 C1.64450306 2.94687779 0.27808637 4.93469421 -2.0625 7.0625 C-2.7225 6.7325 -3.3825 6.4025 -4.0625 6.0625 C-3.7325 5.4025 -3.4025 4.7425 -3.0625 4.0625 C-3.3925 3.0725 -3.7225 2.0825 -4.0625 1.0625 C-3.0625 0.0625 -3.0625 0.0625 0 0 Z " fill="#632880" transform="translate(223.0625,175.9375)"/>
<path d="M0 0 C3.96 0 7.92 0 12 0 C12 0.66 12 1.32 12 2 C12.99 1.67 13.98 1.34 15 1 C15.66 2.32 16.32 3.64 17 5 C14 5 14 5 11.875 3.5625 C7.99879841 1.4558687 4.34971812 1.27481879 0 1 C0 0.67 0 0.34 0 0 Z " fill="#3B4B74" transform="translate(399,91)"/>
<path d="M0 0 C1.32 0.66 2.64 1.32 4 2 C4 3.98 4 5.96 4 8 C3.01 8.495 3.01 8.495 2 9 C1.34 8.67 0.68 8.34 0 8 C-0.6875 4.5 -0.6875 4.5 -1 1 C-0.67 0.67 -0.34 0.34 0 0 Z " fill="#2D7DBB" transform="translate(171,32)"/>
<path d="M0 0 C1.5625 1.25 1.5625 1.25 3 3 C2.6875 5.1875 2.6875 5.1875 2 7 C0.02 7 -1.96 7 -4 7 C-4 6.01 -4 5.02 -4 4 C-3.01 4 -2.02 4 -1 4 C-0.67 2.68 -0.34 1.36 0 0 Z " fill="#427EBB" transform="translate(222,16)"/>
<path d="M0 0 C-2.34914492 2.34914492 -3.95679446 2.73140357 -7.125 3.625 C-8.49011719 4.01558594 -8.49011719 4.01558594 -9.8828125 4.4140625 C-10.58148438 4.60742188 -11.28015625 4.80078125 -12 5 C-12 5.66 -12 6.32 -12 7 C-13.32 6.67 -14.64 6.34 -16 6 C-5.62642369 -0.88838269 -5.62642369 -0.88838269 0 0 Z " fill="#2CB2D1" transform="translate(70,6)"/>
<path d="M0 0 C0.33 1.32 0.66 2.64 1 4 C0.21625 4.45375 -0.5675 4.9075 -1.375 5.375 C-4.03698031 6.88428742 -4.03698031 6.88428742 -6 9 C-6.99 9 -7.98 9 -9 9 C-7.83709195 5.51127585 -6.86032391 4.90023136 -3.9375 2.8125 C-3.20402344 2.28269531 -2.47054687 1.75289062 -1.71484375 1.20703125 C-1.14894531 0.80871094 -0.58304688 0.41039062 0 0 Z " fill="#583583" transform="translate(176,162)"/>
<path d="M0 0 C0.66 0 1.32 0 2 0 C1.66666667 2.33333333 1.33333333 4.66666667 1 7 C0.7834375 8.918125 0.7834375 8.918125 0.5625 10.875 C0.376875 11.90625 0.19125 12.9375 0 14 C-0.99 14.495 -0.99 14.495 -2 15 C-1.85973717 12.68715544 -1.71264442 10.37472409 -1.5625 8.0625 C-1.48128906 6.77472656 -1.40007812 5.48695312 -1.31640625 4.16015625 C-1 1 -1 1 0 0 Z " fill="#269ACC" transform="translate(120,26)"/>
<path d="M0 0 C3.11743233 1.50098594 6.15501823 3.02431822 9 5 C9 5.99 9 6.98 9 8 C4.58848129 6.65203595 2.61191481 4.77276583 0 1 C0 0.67 0 0.34 0 0 Z " fill="#E4EBF4" transform="translate(468,119)"/>
<path d="M0 0 C0.33 0.66 0.66 1.32 1 2 C1.66 2 2.32 2 3 2 C1.84414715 5.91211733 0.64465038 8.8745041 -2 12 C-2.33 10.02 -2.66 8.04 -3 6 C-2.01 6.495 -2.01 6.495 -1 7 C-0.67 4.69 -0.34 2.38 0 0 Z " fill="#5472AF" transform="translate(153,92)"/>
<path d="M0 0 C0.99 0.33 1.98 0.66 3 1 C2.34 1 1.68 1 1 1 C-1.4021604 5.8043208 -1.61122229 10.73103895 -2 16 C-2.33 16 -2.66 16 -3 16 C-3.33 11.71 -3.66 7.42 -4 3 C-2.68 2.67 -1.36 2.34 0 2 C0 1.34 0 0.68 0 0 Z " fill="#C4E9F4" transform="translate(94,39)"/>
<path d="M0 0 C0.45375 0.515625 0.9075 1.03125 1.375 1.5625 C3.98111077 2.28447162 3.98111077 2.28447162 6.375 2.5625 C6.375 2.8925 6.375 3.2225 6.375 3.5625 C0.75 3.8125 0.75 3.8125 -2.625 1.5625 C-4.68209596 1.32194532 -4.68209596 1.32194532 -6.8125 1.4375 C-8.070625 1.47875 -9.32875 1.52 -10.625 1.5625 C-10.625 0.9025 -10.625 0.2425 -10.625 -0.4375 C-9.19089632 -0.68704005 -7.75239928 -0.91142642 -6.3125 -1.125 C-5.51199219 -1.25261719 -4.71148437 -1.38023438 -3.88671875 -1.51171875 C-1.625 -1.4375 -1.625 -1.4375 0 0 Z " fill="#BFE9F6" transform="translate(107.625,37.4375)"/>
<path d="M0 0 C2.875 -0.1875 2.875 -0.1875 6 0 C6.66 0.99 7.32 1.98 8 3 C7.01 3.99 6.02 4.98 5 6 C3.31237149 4.3545622 1.6459651 2.68711423 0 1 C0 0.67 0 0.34 0 0 Z " fill="#5667A8" transform="translate(48,178)"/>
<path d="M0 0 C0.99 0.33 1.98 0.66 3 1 C0.13463296 5.07763771 -2.43041625 7.02677065 -7 9 C-7 8.34 -7 7.68 -7 7 C-6.34 7 -5.68 7 -5 7 C-5 6.34 -5 5.68 -5 5 C-3.37446717 3.29319053 -1.70884005 1.62339805 0 0 Z " fill="#E9DBF2" transform="translate(174,160)"/>
<path d="M0 0 C0.33 0 0.66 0 1 0 C1.41694996 1.59880813 1.80790856 3.20441261 2.1875 4.8125 C2.40792969 5.70582031 2.62835938 6.59914063 2.85546875 7.51953125 C3 10 3 10 1.67578125 11.82421875 C0 13 0 13 -2 13 C-1.34 8.71 -0.68 4.42 0 0 Z " fill="#344471" transform="translate(419,107)"/>
<path d="M0 0 C2.02045442 0.60183749 4.02111039 1.27306096 6 2 C6.33 2.66 6.66 3.32 7 4 C6.0625 6.125 6.0625 6.125 5 8 C4.16382818 6.8562364 3.33113541 5.70992861 2.5 4.5625 C2.0359375 3.92441406 1.571875 3.28632812 1.09375 2.62890625 C0 1 0 1 0 0 Z " fill="#4879B3" transform="translate(105,101)"/>
<path d="M0 0 C-0.33 1.65 -0.66 3.3 -1 5 C-2.32 5 -3.64 5 -5 5 C-5 5.66 -5 6.32 -5 7 C-5.66 7 -6.32 7 -7 7 C-4.60526316 0 -4.60526316 0 0 0 Z " fill="#4464AC" transform="translate(151,101)"/>
<path d="M0 0 C3.10011632 2.53645881 4.0575938 5.15184135 5 9 C4.546875 11.19140625 4.546875 11.19140625 4 13 C3.32404685 11.58774074 2.65959941 10.16997095 2 8.75 C1.62875 7.96109375 1.2575 7.1721875 0.875 6.359375 C0 4 0 4 0 0 Z " fill="#4D6D9E" transform="translate(41,162)"/>
<path d="M0 0 C-5.5522888 2.8352113 -9.80112515 3.37952295 -16 3 C-16 2.67 -16 2.34 -16 2 C-13.89829344 1.46932659 -11.79352402 0.95077143 -9.6875 0.4375 C-7.92986328 0.00244141 -7.92986328 0.00244141 -6.13671875 -0.44140625 C-3 -1 -3 -1 0 0 Z " fill="#615293" transform="translate(167,162)"/>
<path d="M0 0 C0.66 0 1.32 0 2 0 C2 3.3 2 6.6 2 10 C1.01 9.34 0.02 8.68 -1 8 C-1.25660094 4.92078868 -1.39431504 2.78863007 0 0 Z " fill="#E3E8F2" transform="translate(445,104)"/>
<path d="M0 0 C0.66 0.99 1.32 1.98 2 3 C1.34 3 0.68 3 0 3 C0.66 4.32 1.32 5.64 2 7 C1.360625 7.268125 0.72125 7.53625 0.0625 7.8125 C-2.33131686 8.88667752 -2.33131686 8.88667752 -3 12 C-2.49202991 7.6822542 -1.80317221 3.96697886 0 0 Z " fill="#33446E" transform="translate(450,94)"/>
<path d="M0 0 C0.99 0.33 1.98 0.66 3 1 C3.33 1.99 3.66 2.98 4 4 C3.34 4.66 2.68 5.32 2 6 C0.68 6 -0.64 6 -2 6 C-1.49396008 3.83125748 -1.00016187 2.00032373 0 0 Z " fill="#25356D" transform="translate(372,90)"/>
<path d="M0 0 C4.83256305 0.41421969 6.82679218 2.46413986 10 6 C9.67 6.99 9.34 7.98 9 9 C8.34 8.67 7.68 8.34 7 8 C7 6.68 7 5.36 7 4 C4.03 3.505 4.03 3.505 1 3 C0.67 2.01 0.34 1.02 0 0 Z " fill="#4585B6" transform="translate(156,38)"/>
<path d="M0 0 C2.97 0 5.94 0 9 0 C5.68987756 3.31012244 4.46840411 3.50351065 0 4 C0 2.68 0 1.36 0 0 Z " fill="#2786C5" transform="translate(192,5)"/>
<path d="M0 0 C3.63 0 7.26 0 11 0 C7.99382731 3.00617269 5.17618402 2.59585316 1 3 C0.67 2.01 0.34 1.02 0 0 Z " fill="#18B5E5" transform="translate(70,5)"/>
<path d="M0 0 C1.75 0.0625 1.75 0.0625 4 1 C5.59501537 3.24164322 6.74543018 5.53566643 8 8 C4.20645982 6.50968064 2.3521464 4.27620391 0 1 C0 0.67 0 0.34 0 0 Z " fill="#E3DFF3" transform="translate(130,159)"/>
<path d="M0 0 C2 3.75 2 3.75 2 6 C-1.28696233 6.79953138 -2.71023192 7.09658936 -6 6 C-5.195625 5.38125 -4.39125 4.7625 -3.5625 4.125 C-0.96125481 2.25835959 -0.96125481 2.25835959 0 0 Z " fill="#2E426E" transform="translate(416,120)"/>
<path d="M0 0 C0 0.33 0 0.66 0 1 C-0.59167969 1.04898438 -1.18335938 1.09796875 -1.79296875 1.1484375 C-6.25109045 1.57024999 -9.85096113 2.23980169 -14 4 C-14.66 3.67 -15.32 3.34 -16 3 C-11.14640505 -1.01676824 -5.95027665 -0.28136159 0 0 Z " fill="#D3DEED" transform="translate(488,92)"/>
<path d="M0 0 C0 0.66 0 1.32 0 2 C-0.66 2 -1.32 2 -2 2 C-2 2.66 -2 3.32 -2 4 C-4.31 5.32 -6.62 6.64 -9 8 C-7.13554727 3.64961029 -5.02378599 0 0 0 Z " fill="#19275C" transform="translate(382,83)"/>
<path d="M0 0 C2 1 2 1 3.1875 3.3125 C4.03624754 6.11989571 3.99928333 7.301935 3 10 C2.01 9.67 1.02 9.34 0 9 C0 6.03 0 3.06 0 0 Z " fill="#33426B" transform="translate(352,79)"/>
<path d="M0 0 C1.58294782 -0.05437607 3.16644256 -0.09296271 4.75 -0.125 C5.63171875 -0.14820313 6.5134375 -0.17140625 7.421875 -0.1953125 C10.1135858 0.00860498 11.69904974 0.63448279 14 2 C13.01 2.66 12.02 3.32 11 4 C10.01 3.67 9.02 3.34 8 3 C8 2.67 8 2.34 8 2 C5.36 1.67 2.72 1.34 0 1 C0 0.67 0 0.34 0 0 Z " fill="#3581B1" transform="translate(192,4)"/>
<path d="M0 0 C0.33 1.32 0.66 2.64 1 4 C-0.875 6.625 -0.875 6.625 -3 9 C-3.33 9.66 -3.66 10.32 -4 11 C-4.99 10.67 -5.98 10.34 -7 10 C-3.535 5.05 -3.535 5.05 0 0 Z " fill="#35436D" transform="translate(545,100)"/>
<path d="M0 0 C0.99 0 1.98 0 3 0 C3.99 1.98 4.98 3.96 6 6 C5.01 6 4.02 6 3 6 C2.67 5.34 2.34 4.68 2 4 C1.01 3.67 0.02 3.34 -1 3 C-0.67 2.01 -0.34 1.02 0 0 Z " fill="#273763" transform="translate(428,87)"/>
<path d="M0 0 C0.66 0.66 1.32 1.32 2 2 C0.35 3.98 -1.3 5.96 -3 8 C-3.66 7.34 -4.32 6.68 -5 6 C-2.25 1.125 -2.25 1.125 0 0 Z " fill="#E1ECF3" transform="translate(456,83)"/>
<path d="M0 0 C-1.28965176 1.37562854 -2.62689293 2.70766393 -4 4 C-4.66 4 -5.32 4 -6 4 C-7.625 2 -7.625 2 -9 0 C-2.25 -1.125 -2.25 -1.125 0 0 Z " fill="#2692C9" transform="translate(118,42)"/>
<path d="M0 0 C0.6875 1.8125 0.6875 1.8125 1 4 C-0.1875 5.8125 -0.1875 5.8125 -2 7 C-4.1875 6.6875 -4.1875 6.6875 -6 6 C-5.01 6 -4.02 6 -3 6 C-3 4.68 -3 3.36 -3 2 C-2.01 1.34 -1.02 0.68 0 0 Z " fill="#3B91C6" transform="translate(159,24)"/>
<path d="M0 0 C0.66 0 1.32 0 2 0 C3.32 2.31 4.64 4.62 6 7 C5.34 7.66 4.68 8.32 4 9 C3.896875 8.360625 3.79375 7.72125 3.6875 7.0625 C3.460625 6.381875 3.23375 5.70125 3 5 C2.01 4.67 1.02 4.34 0 4 C0 2.68 0 1.36 0 0 Z " fill="#2E3F69" transform="translate(386,118)"/>
<path d="M0 0 C1.80330533 3.60661066 2.46599103 6.08393425 3 10 C1.68 10 0.36 10 -1 10 C-0.67 6.7 -0.34 3.4 0 0 Z " fill="#4A91BD" transform="translate(89,78)"/>
<path d="M0 0 C2 1 2 1 2.62109375 2.765625 C3.02399618 5.14150323 3.09791478 7.34179517 3.0625 9.75 C3.05347656 10.54921875 3.04445312 11.3484375 3.03515625 12.171875 C3.01775391 13.07679687 3.01775391 13.07679687 3 14 C2.67 14 2.34 14 2 14 C1.86722656 13.31292969 1.73445312 12.62585937 1.59765625 11.91796875 C1.42105469 11.01691406 1.24445313 10.11585937 1.0625 9.1875 C0.88847656 8.29417969 0.71445313 7.40085937 0.53515625 6.48046875 C0.02258847 3.88602829 0.02258847 3.88602829 -1 1 C-0.67 0.67 -0.34 0.34 0 0 Z " fill="#43689F" transform="translate(230,31)"/>
<path d="M0 0 C0 0.66 0 1.32 0 2 C-0.639375 2.103125 -1.27875 2.20625 -1.9375 2.3125 C-2.618125 2.539375 -3.29875 2.76625 -4 3 C-4.33 3.99 -4.66 4.98 -5 6 C-5.99 5.67 -6.98 5.34 -8 5 C-3.375 0 -3.375 0 0 0 Z " fill="#49A6CC" transform="translate(109,25)"/>
<path d="M0 0 C0.33 0 0.66 0 1 0 C0.25 7.625 0.25 7.625 -2 11 C-2.95465783 8.83032311 -3.14401212 7.43671207 -2.3984375 5.17578125 C-1.64129615 3.4315257 -0.82390802 1.71372869 0 0 Z " fill="#6E358A" transform="translate(232,158)"/>
<path d="M0 0 C0.66 0 1.32 0 2 0 C0.73058503 3.91402949 -0.51167694 5.79072873 -4 8 C-3.67 6.35 -3.34 4.7 -3 3 C-2.01 2.67 -1.02 2.34 0 2 C0 1.34 0 0.68 0 0 Z " fill="#323F69" transform="translate(431,128)"/>
<path d="M0 0 C0.99 0.99 1.98 1.98 3 3 C2.01 4.98 1.02 6.96 0 9 C-0.33 9 -0.66 9 -1 9 C-0.67 6.03 -0.34 3.06 0 0 Z " fill="#415DAB" transform="translate(165,92)"/>
<path d="M0 0 C2.31 0.33 4.62 0.66 7 1 C7 1.66 7 2.32 7 3 C7.99 3.33 8.98 3.66 10 4 C3.47692308 3.38461538 3.47692308 3.38461538 1.0625 1.4375 C0.711875 0.963125 0.36125 0.48875 0 0 Z " fill="#3D4E75" transform="translate(466,140)"/>
<path d="M0 0 C0.33 0.66 0.66 1.32 1 2 C3.02463255 2.65213292 3.02463255 2.65213292 5 3 C2.625 4.5625 2.625 4.5625 0 6 C-0.66 5.67 -1.32 5.34 -2 5 C-1.34 3.35 -0.68 1.7 0 0 Z " fill="#33446E" transform="translate(496,137)"/>
<path d="M0 0 C4 4.625 4 4.625 4 8 C3.01 8 2.02 8 1 8 C0.26919734 6.02253397 -0.39421747 4.01927511 -1 2 C-0.67 1.34 -0.34 0.68 0 0 Z " fill="#283868" transform="translate(467,118)"/>
<path d="M0 0 C2.64 1.65 5.28 3.3 8 5 C7.34 5.66 6.68 6.32 6 7 C3.00675737 5.9024777 2.15389099 5.32317108 0.75 2.375 C0.5025 1.59125 0.255 0.8075 0 0 Z " fill="#4F70A3" transform="translate(106,115)"/>
<path d="M0 0 C1.65 0 3.3 0 5 0 C2.63379989 2.61527381 0.057952 4.26440562 -3 6 C-2.67 4.68 -2.34 3.36 -2 2 C-1.34 2 -0.68 2 0 2 C0 1.34 0 0.68 0 0 Z " fill="#36A0C4" transform="translate(92,31)"/>
<path d="M0 0 C0.5775 0.515625 1.155 1.03125 1.75 1.5625 C-0.56 2.2225 -2.87 2.8825 -5.25 3.5625 C-5.58 2.2425 -5.91 0.9225 -6.25 -0.4375 C-3.39943397 -1.55736523 -2.65876672 -1.69865651 0 0 Z " fill="#2D8AB9" transform="translate(145.25,24.4375)"/>
<path d="M0 0 C2.02045442 0.60183749 4.02111039 1.27306096 6 2 C6.33 2.66 6.66 3.32 7 4 C6.34 4.66 5.68 5.32 5 6 C4.67 5.01 4.34 4.02 4 3 C1.98491642 2.26676204 1.98491642 2.26676204 0 2 C0 1.34 0 0.68 0 0 Z " fill="#364069" transform="translate(506,124)"/>
<path d="M0 0 C0.66 0.33 1.32 0.66 2 1 C-1.625 6.875 -1.625 6.875 -5 8 C-3.8141763 4.62496331 -2.72426311 2.35277269 0 0 Z " fill="#E4EAF9" transform="translate(171,118)"/>
<path d="M0 0 C-4.75 3.875 -4.75 3.875 -7 5 C-7.33 4.01 -7.66 3.02 -8 2 C-4.77208445 -0.1519437 -3.71599191 -0.20086443 0 0 Z " fill="#273963" transform="translate(397,92)"/>
<path d="M0 0 C0.99 0.33 1.98 0.66 3 1 C1.6875 3 1.6875 3 0 5 C-0.99 5 -1.98 5 -3 5 C-1.125 1.125 -1.125 1.125 0 0 Z " fill="#192B5D" transform="translate(459,83)"/>
</svg>
